<svg width="49" height="39" viewBox="0 0 49 39" fill="none" xmlns="http://www.w3.org/2000/svg">
  <path d="M30.9129 19.7794C30.9974 19.3493 31.0398 18.9119 31.0394 18.4736C31.039 17.168 30.6581 15.8907 29.943 14.7973C29.2279 13.7039 28.2096 12.8416 27.0121 12.3155C27.0471 12.3652 27.0905 12.3791 27.0841 12.4009C27.0777 12.4228 27.0276 12.4073 26.9743 12.3866C26.9326 12.3721 26.8895 12.3619 26.8457 12.356C26.8111 12.3489 26.7335 12.2786 26.6698 12.2504C26.6061 12.2222 26.6324 12.2413 26.6857 12.2849C26.7391 12.3286 26.7976 12.3413 26.7578 12.3541C26.7524 12.3549 26.7468 12.3549 26.7414 12.3541L26.7514 12.3862C26.7781 12.3723 26.8632 12.4454 26.9054 12.4629C26.9476 12.4803 27.0252 12.5069 27.0089 12.5288C26.9926 12.5506 26.9408 12.5212 26.9691 12.5415C26.9974 12.5618 26.9985 12.5816 26.9643 12.5757C26.9301 12.5697 26.9217 12.5792 26.9675 12.5947C27.0133 12.6102 27.0399 12.6023 27.0602 12.6197C27.0805 12.6372 27.1295 12.6527 27.145 12.6769C27.1605 12.7012 27.1577 12.7246 27.1733 12.7262C27.1888 12.7278 27.1844 12.6896 27.1968 12.6789C27.2091 12.6682 27.2752 12.6992 27.3285 12.7103C27.3818 12.7214 27.3818 12.7556 27.377 12.7683C27.3723 12.781 27.3476 12.7806 27.3679 12.7885C27.3882 12.7965 27.4041 12.7822 27.4431 12.8199C27.4821 12.8576 27.6401 12.9815 27.7098 13.03C27.7794 13.0784 27.7599 13.0784 27.7396 13.0784C27.7193 13.0784 27.7018 13.0768 27.7317 13.1066C27.8252 13.1996 27.7305 13.1344 27.8383 13.2504C27.9462 13.3664 27.9577 13.3183 27.986 13.3525C28.0142 13.3866 27.9888 13.3731 28.0298 13.4104C28.0708 13.4478 28.0425 13.4037 28.0457 13.3914C28.0489 13.3791 28.0624 13.3791 28.0831 13.3977C28.1038 13.4164 28.1102 13.4351 28.1508 13.4414C28.1914 13.4478 28.1945 13.451 28.2136 13.4839C28.2503 13.5292 28.2963 13.566 28.3486 13.5919C28.4079 13.6261 28.38 13.6463 28.4051 13.6714C28.4302 13.6964 28.4867 13.7556 28.5603 13.8278C28.6339 13.9001 28.7732 14.0411 28.739 14.0534C28.7048 14.0657 28.696 14.0141 28.6057 13.9641C28.5153 13.914 28.5384 13.9124 28.4755 13.8795C28.4032 13.8408 28.3336 13.7974 28.267 13.7496C28.2131 13.7187 28.1685 13.6738 28.138 13.6197C28.1229 13.6054 28.0986 13.613 28.0831 13.6054C28.0676 13.5979 28.0739 13.5586 28.0489 13.5336C28.0238 13.5085 27.9808 13.4363 27.9514 13.4224C27.9219 13.4085 27.7711 13.2579 27.6831 13.1892C27.5951 13.1205 27.5482 13.08 27.5482 13.1098C27.5482 13.1396 27.5705 13.144 27.6501 13.2004C27.7297 13.2568 27.7758 13.3223 27.7695 13.3382C27.7631 13.3541 27.7444 13.3302 27.7177 13.3116C27.6911 13.2929 27.6517 13.2492 27.6485 13.2647C27.6389 13.3139 27.7333 13.4097 27.7882 13.4668C27.8431 13.524 27.8507 13.5463 27.8964 13.5463C27.9422 13.5463 27.9402 13.5915 27.9482 13.6463C27.9561 13.7012 27.9422 13.6948 27.9139 13.673C27.8857 13.6511 27.8845 13.6622 27.8638 13.6809C27.8431 13.6996 27.8777 13.756 27.873 13.781C27.8682 13.806 27.873 13.8346 27.8415 13.8421C27.8101 13.8497 27.8208 13.8572 27.8133 13.9061C27.8057 13.9549 27.8718 14.0268 27.9187 14.1066C27.9657 14.1865 27.978 14.2444 28.0142 14.3004C28.0505 14.3564 28.0708 14.5042 28.099 14.5153C28.1273 14.5264 28.1348 14.4855 28.146 14.4823C28.1571 14.4792 28.1699 14.4776 28.1929 14.5153C28.216 14.553 28.2415 14.5387 28.2558 14.5371C28.2702 14.5355 28.2618 14.5089 28.2479 14.4792C28.2339 14.4494 28.2184 14.4633 28.2339 14.4212C28.2495 14.3791 28.3028 14.4184 28.3311 14.4339C28.3593 14.4494 28.3657 14.4259 28.3673 14.4025C28.3689 14.3791 28.3326 14.3481 28.3076 14.3306C28.2825 14.3131 28.2889 14.3064 28.3123 14.3008C28.3358 14.2953 28.4505 14.383 28.5273 14.4597C28.602 14.5264 28.6854 14.5828 28.7752 14.6273C28.8397 14.6634 28.8102 14.6662 28.7911 14.6773C28.772 14.6884 28.7748 14.69 28.8146 14.7385C28.8444 14.7829 28.8785 14.8243 28.9165 14.862C28.9587 14.8965 28.9694 14.8731 28.9885 14.8918C29.0076 14.9104 29.0498 14.939 29.0451 14.9577C29.0403 14.9764 29.0108 14.9514 28.9965 14.9466C28.9822 14.9418 28.9917 14.9609 29.0184 14.9891C29.0451 15.0173 29.0562 15.0483 29.0077 15.0173C28.949 14.9669 28.8968 14.9095 28.852 14.8465C28.8429 14.8306 28.8365 14.8259 28.8067 14.804C28.7768 14.7822 28.6487 14.6396 28.5997 14.5943C28.5507 14.5491 28.4962 14.5109 28.46 14.4752C28.4238 14.4394 28.4015 14.4271 28.3908 14.4394C28.38 14.4518 28.4035 14.474 28.4489 14.5081C28.4866 14.5344 28.5169 14.57 28.5368 14.6114C28.5523 14.6475 28.6498 14.7337 28.7092 14.7949C28.7562 14.8433 28.7927 14.9009 28.8162 14.9641C28.8332 14.9944 28.8458 15.0271 28.8536 15.061C28.86 15.1015 28.9257 15.1833 28.9587 15.2786C28.9917 15.3739 29.0013 15.3898 29.028 15.4744C29.0546 15.559 29.0666 15.6384 29.0359 15.7027C29.0053 15.7671 28.9671 15.6984 28.9563 15.6952C28.9456 15.692 28.9376 15.7218 28.9675 15.7655C28.9973 15.8092 28.9862 15.8302 28.9675 15.8346C28.9487 15.839 28.9659 15.8346 28.9675 15.9033C28.969 15.972 28.9846 15.9668 29.0144 16.0066C29.028 16.0262 29.037 16.0486 29.0407 16.0722C29.0445 16.0958 29.0428 16.1199 29.0359 16.1428C29.0248 16.1862 29.0201 16.231 29.022 16.2758C29.0252 16.3231 29.0498 16.3231 29.0908 16.3231C29.1318 16.3231 29.1366 16.337 29.1633 16.3628C29.1899 16.3886 29.2305 16.3866 29.287 16.4601C29.3131 16.4892 29.333 16.5232 29.3457 16.5601C29.3584 16.597 29.3636 16.636 29.3611 16.675C29.3595 16.7671 29.3515 16.7663 29.3436 16.775C29.3356 16.7838 29.3404 16.8203 29.3225 16.8235C29.3046 16.8267 29.3121 16.8501 29.3046 16.8703C29.3031 16.875 29.3004 16.8791 29.2967 16.8823C29.293 16.8854 29.2885 16.8874 29.2837 16.8881C29.2789 16.8888 29.274 16.888 29.2696 16.886C29.2652 16.884 29.2614 16.8808 29.2588 16.8767C29.2449 16.858 29.2588 16.8398 29.2353 16.8064C29.2118 16.773 29.2114 16.7155 29.1991 16.6936C29.1868 16.6718 29.1553 16.6519 29.1414 16.6122C29.1292 16.582 29.1104 16.5548 29.0865 16.5328C29.0753 16.5217 29.0614 16.5213 29.0534 16.5419C29.0455 16.5626 29.014 16.5622 28.9842 16.5498C28.9543 16.5375 28.9591 16.4482 28.9591 16.4482C28.9388 16.445 28.9288 16.4073 28.9261 16.3823C28.9233 16.3572 28.8743 16.3588 28.8492 16.366C28.8242 16.3731 28.8226 16.4251 28.8023 16.4454C28.782 16.4657 28.7836 16.4581 28.7772 16.5363C28.7708 16.6146 28.7597 16.6237 28.7442 16.6237C28.7287 16.6237 28.741 16.5645 28.7362 16.5645C28.7302 16.5659 28.7239 16.5658 28.7179 16.5641C28.7119 16.5624 28.7065 16.5593 28.702 16.555C28.6893 16.5427 28.7036 16.4549 28.6988 16.4236C28.694 16.3922 28.6765 16.3608 28.6343 16.3672C28.5921 16.3735 28.6077 16.4077 28.6188 16.4422C28.6236 16.4596 28.6236 16.4781 28.6186 16.4954C28.6136 16.5128 28.6039 16.5285 28.5905 16.5407C28.5808 16.5491 28.5745 16.5608 28.5727 16.5735C28.571 16.5862 28.5739 16.5991 28.581 16.6098C28.589 16.6317 28.6065 16.6539 28.5703 16.6841C28.534 16.7143 28.534 16.7099 28.534 16.7381C28.5351 16.7531 28.54 16.7676 28.5482 16.7803C28.5564 16.7929 28.5677 16.8033 28.581 16.8104C28.6093 16.8275 28.6284 16.8084 28.6455 16.7961C28.6626 16.7838 28.6861 16.7965 28.6908 16.8386C28.6956 16.8807 28.7207 16.8735 28.7442 16.8711C28.7677 16.8688 28.7597 16.8354 28.7474 16.829C28.735 16.8227 28.735 16.8068 28.7601 16.7615C28.7852 16.7163 28.821 16.7365 28.8524 16.7413C28.8839 16.746 28.8978 16.7071 28.9089 16.6944C28.9201 16.6817 28.9388 16.6738 28.942 16.7115C28.9452 16.7492 28.936 16.7711 28.8902 16.8179C28.8445 16.8648 28.8636 16.8628 28.862 16.8973C28.8604 16.9319 28.868 16.9649 28.8492 16.9883C28.8305 17.0117 28.8305 16.9946 28.8305 17.0618C28.8272 17.0846 28.8328 17.1078 28.8462 17.1265C28.8597 17.1453 28.8799 17.1581 28.9026 17.1622C28.9404 17.1714 28.9292 17.146 28.9889 17.2214C29.0486 17.2969 29.0689 17.2933 29.1255 17.331C29.182 17.3688 29.2118 17.3977 29.1788 17.414C29.1458 17.4303 29.1661 17.4196 29.2007 17.4537C29.2353 17.4879 29.2086 17.5042 29.1899 17.5332C29.1712 17.5622 29.1661 17.5987 29.1788 17.6019C29.1915 17.6051 29.1864 17.582 29.2023 17.5725C29.2182 17.563 29.2206 17.5848 29.2369 17.5864C29.2532 17.588 29.258 17.5634 29.2767 17.5598C29.2954 17.5562 29.2906 17.6078 29.2906 17.6392C29.2906 17.6706 29.3065 17.667 29.3081 17.6877C29.3097 17.7083 29.2954 17.7552 29.3117 17.7786C29.3201 17.7884 29.3248 17.8009 29.3248 17.8138C29.3248 17.8266 29.3201 17.8391 29.3117 17.8489C29.2934 17.8767 29.2799 17.8767 29.3018 17.9164C29.3086 17.9282 29.312 17.9416 29.3114 17.9552C29.3109 17.9688 29.3064 17.9819 29.2986 17.9931C29.2938 18.0026 29.3093 18.0336 29.2938 18.0495C29.2783 18.0653 29.2843 18.1309 29.2938 18.1527C29.3034 18.1746 29.3225 18.2079 29.3034 18.225C29.2843 18.2421 29.2874 18.2591 29.2922 18.2873C29.296 18.3049 29.296 18.3231 29.2922 18.3407C29.2885 18.3583 29.281 18.3749 29.2703 18.3894C29.2453 18.4156 29.256 18.4263 29.2532 18.4688C29.2507 18.4861 29.2444 18.5026 29.2347 18.5171C29.2251 18.5317 29.2124 18.5439 29.1975 18.553C29.1804 18.5638 29.1788 18.6416 29.1756 18.6654C29.1724 18.6893 29.1362 18.7067 29.1127 18.7159C29.0892 18.725 29.061 18.7766 29.0455 18.808C29.0299 18.8394 28.9814 18.8314 28.9686 18.8298C28.9559 18.8283 28.975 18.8719 28.9686 18.9128C28.9623 18.9537 28.9018 18.9819 28.862 19.0193C28.8348 19.0483 28.8023 19.0718 28.7661 19.0884C28.741 19.0951 28.7505 19.1245 28.749 19.1746C28.7474 19.2246 28.7521 19.25 28.7191 19.2592C28.6861 19.2683 28.6737 19.2119 28.6721 19.1682C28.6705 19.1245 28.6765 19.1102 28.661 19.1102C28.6455 19.1102 28.6455 19.1444 28.6093 19.1587C28.573 19.173 28.5814 19.1587 28.5416 19.19C28.5019 19.2214 28.4675 19.259 28.4397 19.3012C28.421 19.3342 28.4162 19.3997 28.3864 19.4486C28.3644 19.4806 28.3554 19.5198 28.3613 19.5582C28.3629 19.5955 28.347 19.6257 28.3864 19.6396C28.4258 19.6535 28.4704 19.7119 28.5181 19.7492C28.5659 19.7866 28.6057 19.7742 28.6455 19.81C28.7212 19.8753 28.7739 19.9632 28.7959 20.0606C28.8165 20.1477 28.8234 20.2375 28.8162 20.3267C28.813 20.3739 28.7764 20.3783 28.7314 20.4395C28.6865 20.5006 28.6956 20.4883 28.6518 20.5133C28.6081 20.5383 28.6128 20.5928 28.6081 20.6289C28.6033 20.665 28.5734 20.6591 28.5515 20.6777C28.5297 20.6964 28.5249 20.725 28.4934 20.748C28.462 20.7711 28.4556 20.8207 28.4337 20.8275C28.4118 20.8342 28.4134 20.8171 28.415 20.748C28.4166 20.6789 28.4087 20.6392 28.39 20.6289C28.3712 20.6186 28.3402 20.6686 28.3211 20.6686C28.302 20.6686 28.2749 20.6043 28.2674 20.609C28.2598 20.6138 28.255 20.6495 28.2395 20.6309C28.2191 20.6102 28.204 20.5851 28.1953 20.5574C28.1906 20.5308 28.1667 20.5308 28.1436 20.5213C28.1205 20.5117 28.103 20.4712 28.0807 20.4883C28.0595 20.5072 28.0351 20.5221 28.0087 20.5324C27.9804 20.5415 27.982 20.5292 27.9852 20.5074C27.9926 20.4815 27.9936 20.4543 27.9884 20.4279C27.98 20.4045 27.9398 20.4331 27.9004 20.4518C27.861 20.4704 27.8877 20.5562 27.8909 20.6205C27.894 20.6849 27.8642 20.6694 27.8642 20.6928C27.8722 20.7266 27.8701 20.7619 27.8582 20.7945C27.8421 20.8374 27.8366 20.8836 27.8423 20.9291C27.8423 20.9327 27.8423 20.9363 27.8423 20.9391C27.8471 20.9923 27.8761 20.9569 27.8905 20.9446C27.9048 20.9323 27.9187 20.9343 27.9171 20.9589C27.9155 20.9835 27.9096 21.0201 27.9346 21.0233C27.9597 21.0264 27.9645 21.0312 27.9629 21.0781C27.9613 21.1249 27.98 21.1122 28.0051 21.1436C28.0302 21.175 28.0433 21.1607 28.0743 21.1531C28.1054 21.1456 28.187 21.1904 28.2435 21.225C28.3 21.2596 28.3314 21.3378 28.3096 21.3692C28.2877 21.4005 28.3 21.4478 28.3032 21.4819C28.3064 21.5161 28.3788 21.586 28.3756 21.6289C28.3724 21.6718 28.3251 21.6916 28.187 21.6321C28.1397 21.6126 28.0982 21.5814 28.0663 21.5414C28.0345 21.5015 28.0134 21.4541 28.0051 21.4037C27.9955 21.3505 27.9458 21.2814 27.9048 21.225C27.8638 21.1686 27.8009 21.1138 27.779 21.1122C27.7571 21.1106 27.748 21.0987 27.7416 21.0514C27.7352 21.0042 27.7416 20.9887 27.7492 20.9808C27.7535 20.9672 27.7545 20.9527 27.752 20.9387C27.7504 20.916 27.7472 20.8882 27.7448 20.868C27.74 20.831 27.7412 20.7917 27.7571 20.7885C27.7731 20.7854 27.7667 20.723 27.7492 20.7012C27.7324 20.6672 27.7253 20.6293 27.7289 20.5916C27.7289 20.5491 27.7289 20.5479 27.7006 20.532C27.6724 20.5161 27.6847 20.4724 27.6724 20.449C27.66 20.4256 27.6286 20.4184 27.627 20.3815C27.6254 20.3445 27.6381 20.3271 27.6143 20.302C27.5994 20.28 27.5928 20.2534 27.5955 20.227C27.5657 20.2159 27.5498 20.1579 27.5311 20.1221C27.5124 20.0864 27.5187 20.1043 27.5124 20.1658C27.506 20.2274 27.4809 20.2103 27.459 20.2055C27.4371 20.2008 27.4547 20.2441 27.4244 20.2679C27.3942 20.2917 27.4208 20.2877 27.3846 20.3275C27.3484 20.3672 27.3488 20.3239 27.3345 20.3275C27.3201 20.331 27.3082 20.3576 27.262 20.3672C27.2159 20.3767 27.2254 20.3215 27.2222 20.2746C27.219 20.2278 27.2346 20.167 27.2222 20.1134C27.2099 20.0598 27.1995 20.0463 27.1426 19.9943C27.0857 19.9422 27.1359 19.8985 27.1028 19.8954C27.0698 19.8922 27.0415 19.8795 26.9615 19.8342C26.8815 19.7889 26.9193 19.7373 26.8879 19.6809C26.8565 19.6245 26.7498 19.5931 26.7498 19.5931C26.7498 19.5931 26.7717 19.6539 26.7012 19.7294C26.6308 19.8048 26.4577 19.8048 26.3952 19.8251C26.3327 19.8453 26.3339 19.8763 26.3434 19.947C26.353 20.0177 26.2933 20.0522 26.2149 20.1023C26.1365 20.1523 26.1126 20.1992 26.033 20.304C25.9852 20.369 25.9242 20.4231 25.8539 20.4629C25.8121 20.4931 25.8209 20.5475 25.7723 20.5725C25.7416 20.5869 25.7145 20.6077 25.6927 20.6337C25.6578 20.6614 25.6169 20.6806 25.5733 20.69C25.5466 20.6972 25.5685 20.7762 25.5765 20.8561C25.5845 20.9359 25.6123 21.0828 25.5765 21.1221C25.5407 21.1615 25.549 21.1678 25.5466 21.2349C25.5443 21.302 25.5423 21.3382 25.5045 21.3461C25.4666 21.3541 25.4702 21.3759 25.4575 21.4228C25.4448 21.4696 25.4579 21.4792 25.4073 21.4808C25.3568 21.4823 25.3636 21.4951 25.3461 21.5419C25.3285 21.5888 25.3174 21.592 25.3019 21.5951C25.2864 21.5983 25.2756 21.6186 25.241 21.6106C25.2064 21.6027 25.2219 21.5916 25.1498 21.5213C25.0778 21.451 25.071 21.3759 25.0555 21.3227C25.04 21.2695 25.0273 21.2163 24.9584 21.1785C24.8895 21.1408 24.8987 21.0749 24.8987 21.0093C24.8987 20.9438 24.8048 20.7842 24.7483 20.6964C24.6917 20.6086 24.7252 20.5459 24.6854 20.4958C24.6353 20.4199 24.6109 20.33 24.6157 20.2393C24.6213 20.1452 24.6352 20.1801 24.6006 20.0765C24.566 19.9728 24.6476 19.9355 24.6006 19.9291C24.5536 19.9228 24.5727 20.0109 24.5568 20.0451C24.5409 20.0792 24.4689 20.1416 24.3308 20.0824C24.1926 20.0232 24.2054 19.9136 24.2054 19.9136C24.2902 19.8978 24.312 19.8541 24.312 19.8541H24.1803C24.145 19.8171 24.1072 19.7826 24.0673 19.7508C24.0171 19.7131 23.9101 19.6317 23.879 19.5284C23.8431 19.5183 23.8051 19.5183 23.7692 19.5284C23.6999 19.5439 23.6152 19.5614 23.5495 19.5213C23.4838 19.4812 23.3226 19.5129 23.2311 19.5086C23.1395 19.5042 23.1419 19.4641 23.0759 19.4545C23.0098 19.445 22.9393 19.4168 22.8617 19.4053C22.7841 19.3938 22.8076 19.4077 22.8028 19.3465C22.8027 19.3192 22.7965 19.2922 22.7847 19.2675C22.7729 19.2428 22.7559 19.221 22.7348 19.2035C22.6946 19.1777 22.7157 19.2222 22.697 19.2341C22.6893 19.2389 22.6805 19.2415 22.6715 19.2417L22.685 19.2997C22.7133 19.2973 22.6592 19.3866 22.7041 19.5086C22.7196 19.5497 22.7466 19.5855 22.7818 19.6118C22.8171 19.638 22.8592 19.6536 22.9031 19.6567C22.9481 19.6638 22.9648 19.6924 23.0094 19.7552C23.054 19.8179 23.0703 19.8437 23.0587 19.8743C23.0249 19.9259 22.988 19.9754 22.9481 20.0225C22.9127 20.0717 22.9171 20.0693 22.8773 20.0788C22.8589 20.0803 22.8417 20.0886 22.8291 20.102C22.8165 20.1155 22.8094 20.1331 22.8092 20.1515C22.802 20.2012 22.8036 20.2734 22.7503 20.2806C22.697 20.2877 22.6472 20.2671 22.6309 20.3231C22.6146 20.3791 22.6146 20.3704 22.5581 20.3771C22.5015 20.3839 22.5087 20.3747 22.4852 20.4263C22.4617 20.478 22.3977 20.4573 22.3555 20.4593C22.3133 20.4613 22.1756 20.4494 22.1414 20.4943C22.1071 20.5391 22.0645 20.6118 21.9822 20.6166C21.8998 20.6213 21.7983 20.6138 21.7561 20.6305C21.7139 20.6472 21.7139 20.6869 21.6809 20.6845C21.6478 20.6821 21.61 20.6237 21.5726 20.6472C21.5352 20.6706 21.5093 20.694 21.4644 20.6849C21.4058 20.6687 21.3438 20.6694 21.2857 20.6869C21.2092 20.7067 21.1089 20.7286 21.0783 20.6603H21.0425C21.052 20.6743 21.0565 20.6911 21.0553 20.708C21.0542 20.7249 21.0474 20.741 21.0361 20.7536C20.9983 20.7909 21.0051 20.8096 21.0218 20.8144C21.0385 20.8191 21.0473 20.8148 21.0691 20.8568C21.091 20.8989 21.1304 20.9673 21.2104 20.9673C21.2904 20.9673 21.2805 20.9482 21.3255 20.9482C21.3704 20.9482 21.3772 20.9879 21.4385 20.9879C21.4972 20.9819 21.5565 20.9819 21.6152 20.9879C21.688 20.9998 21.6765 21.0157 21.7517 21.009C21.8269 21.0022 21.8532 20.9478 21.8906 20.9573C21.928 20.9669 21.9774 21.009 21.9611 21.028C21.9346 21.0729 21.9201 21.1237 21.9189 21.1758C21.9117 21.2508 21.9093 21.3001 21.8835 21.3096C21.8576 21.3191 21.8552 21.3334 21.8552 21.3545C21.8552 21.3755 21.8504 21.3521 21.8198 21.3731C21.7891 21.3942 21.7752 21.4343 21.7374 21.5022C21.6824 21.5914 21.6143 21.6717 21.5352 21.7405C21.4528 21.8136 21.3891 21.8676 21.2904 21.8958C21.1837 21.9202 21.0839 21.9683 20.9983 22.0364C20.9135 22.1118 20.8363 22.1865 20.7655 22.2032C20.6946 22.2198 20.7066 22.2123 20.7066 22.2457C20.7066 22.279 20.6692 22.3231 20.6361 22.3584C20.6031 22.3938 20.5633 22.4379 20.5772 22.4732C20.5911 22.5086 20.6214 22.5233 20.6429 22.5578C20.6644 22.5924 20.6433 22.6535 20.6711 22.6769C20.699 22.7004 20.6711 22.7802 20.7109 22.8156C20.7668 22.8656 20.811 22.9273 20.8403 22.9963C20.8686 23.0737 20.8355 23.1217 20.8968 23.1889C20.9581 23.256 20.976 23.3501 20.904 23.3874C20.8319 23.4248 20.7241 23.3803 20.6652 23.3874C20.6063 23.3946 20.6417 23.4319 20.5732 23.4367C20.5048 23.4414 20.4741 23.4367 20.4861 23.4601C20.498 23.4835 20.5709 23.5725 20.5943 23.6245C20.6178 23.6766 20.6743 23.7163 20.6791 23.756C20.6839 23.7957 20.5494 23.7441 20.5307 23.756C20.5119 23.7679 20.6039 23.8573 20.5991 23.8783C20.5943 23.8994 20.545 23.8854 20.545 23.9089C20.545 23.9323 20.5486 23.9557 20.5004 23.9534C20.4522 23.951 20.2672 23.8267 20.2532 23.8477L20.2477 23.8553C21.4033 24.7201 22.8066 25.192 24.2511 25.2014C25.6955 25.2109 27.1049 24.7574 28.2718 23.9077C28.3454 23.8401 28.4109 23.7641 28.4668 23.6813C28.5233 23.5828 28.622 23.4887 28.6315 23.4371C28.6411 23.3854 28.6459 23.3668 28.7024 23.3009C28.7589 23.2349 28.7919 23.202 28.8154 23.2067C28.8389 23.2115 28.8433 23.1178 28.8763 23.1364C28.9093 23.1551 28.9189 23.0987 28.9706 23.0519C29.0224 23.005 29.2059 22.8656 29.3141 22.7464C29.3971 22.6545 29.4697 22.5537 29.5306 22.4458C29.582 22.3616 29.6007 22.3505 29.6102 22.3489C29.6198 22.3473 29.6206 22.4041 29.6417 22.3616C29.6628 22.3191 29.6532 22.275 29.6815 22.2611C29.7097 22.2472 29.7332 22.2393 29.7754 22.1376C29.8065 22.0619 29.8501 21.992 29.9043 21.9307C29.9418 21.887 29.9597 21.8656 29.964 21.8715C29.9684 21.8775 29.9497 21.9355 29.9812 21.8997C30.0259 21.8599 30.0585 21.8083 30.0751 21.7508C30.1205 21.6364 30.1137 21.6317 30.1547 21.5737C30.1957 21.5157 30.2566 21.4883 30.2693 21.4363C30.282 21.3843 30.2649 21.3362 30.296 21.3235C30.327 21.3108 30.3314 21.3279 30.3668 21.256C30.4022 21.1841 30.4273 21.1575 30.442 21.1559C30.4568 21.1543 30.4373 21.1881 30.417 21.2278C30.3911 21.2737 30.3685 21.3213 30.3493 21.3704C30.3373 21.4048 30.3313 21.4411 30.3318 21.4776C30.4773 21.1868 30.6016 20.8859 30.7035 20.5773C30.6649 20.5717 30.6064 20.7266 30.5973 20.7047C30.5881 20.6829 30.6605 20.5526 30.6542 20.5296C30.6478 20.5066 30.6729 20.4105 30.6383 20.4502C30.6085 20.4849 30.5722 20.5136 30.5316 20.5348C30.5125 20.5379 30.4942 20.6174 30.4814 20.6225C30.4687 20.6277 30.4719 20.5618 30.4687 20.5431C30.4655 20.5244 30.5419 20.3926 30.522 20.42C30.5021 20.4474 30.4715 20.4621 30.4623 20.4557C30.4532 20.4494 30.4106 20.4931 30.3967 20.4776C30.3827 20.4621 30.4436 20.4057 30.4623 20.3584C30.4849 20.3165 30.5201 20.2827 30.563 20.2619C30.5973 20.2401 30.5503 20.3449 30.5786 20.3557C30.6068 20.3664 30.6132 20.3497 30.6287 20.287C30.6373 20.2333 30.6521 20.1807 30.6729 20.1305C30.6965 20.079 30.7345 20.0355 30.7823 20.005C30.8158 19.9931 30.9073 19.7917 30.9129 19.7794ZM30.9129 19.7794C31.2085 18.2779 30.9842 16.7208 30.2754 15.3639C29.5666 14.007 28.4162 12.9312 27.0134 12.3131C26.2492 11.9772 25.429 11.7865 24.5947 11.7508C24.4955 11.7465 24.3957 11.7444 24.2954 11.7444C23.9646 11.7444 23.6341 11.7684 23.3068 11.8163C22.902 11.8755 22.5035 11.9716 22.1164 12.1034C20.7887 12.5549 19.6354 13.4086 18.8172 14.5454C17.999 15.6822 17.5567 17.0454 17.5521 18.445L17.5521 18.4736M30.9129 19.7794C30.5851 21.4386 29.6433 22.9134 28.2738 23.9097C26.9557 24.8704 25.3329 25.3213 23.7069 25.1787C22.0808 25.0361 20.5618 24.3096 19.4319 23.1341C18.2237 21.8824 17.5497 20.2115 17.5521 18.4736M29.572 16.9188C29.5664 16.9279 29.5525 16.9069 29.5322 16.8739C29.5218 16.8609 29.5146 16.8457 29.5111 16.8294C29.5077 16.8131 29.5081 16.7963 29.5123 16.7802C29.5171 16.729 29.5266 16.7361 29.5736 16.7405C29.6206 16.7448 29.6369 16.7726 29.6464 16.8199C29.656 16.8672 29.6843 16.8763 29.703 16.9279C29.7107 16.946 29.7123 16.966 29.7077 16.9851C29.703 17.0041 29.6923 17.0211 29.6771 17.0336C29.656 17.0502 29.6214 16.9748 29.6043 16.9537M29.572 16.9188C29.5776 16.9097 29.5601 16.8366 29.5816 16.8576M29.572 16.9188C29.5768 16.9093 29.5589 16.8366 29.5816 16.8576M29.5816 16.8576C29.6031 16.8787 29.5871 16.9327 29.6043 16.9537M29.5816 16.8576C29.6042 16.8787 29.5871 16.9327 29.6043 16.9537M29.4888 18.2087C29.494 18.2722 29.505 18.3351 29.5219 18.3966C29.5288 18.4129 29.5323 18.4305 29.5323 18.4482C29.5323 18.4659 29.5288 18.4835 29.5219 18.4998L29.5223 18.5014M29.4888 18.2087C29.4841 18.1523 29.4888 18.0749 29.4371 18.169M29.4888 18.2087C29.4841 18.1531 29.4896 18.0757 29.4371 18.169M29.4888 18.2087C29.4939 18.2725 29.5054 18.3364 29.5223 18.3981C29.5292 18.4145 29.5328 18.432 29.5328 18.4498C29.5328 18.4675 29.5292 18.4851 29.5223 18.5014M29.4371 18.169C29.4112 18.2143 29.4136 18.2881 29.4041 18.3787M29.4371 18.169C29.4112 18.2143 29.4136 18.2893 29.4041 18.3787M29.4041 18.3787C29.3945 18.4692 29.3993 18.4446 29.4558 18.5006M29.4041 18.3787C29.3945 18.468 29.3993 18.4442 29.4558 18.5006M29.4558 18.5006C29.5123 18.5566 29.5079 18.5391 29.5223 18.5014M21.0088 14.4486C21.0157 14.4382 21.024 14.4263 21.0339 14.4128C21.0868 14.3406 21.1119 14.3255 21.1135 14.308C21.115 14.2905 21.0442 14.2941 21.0207 14.3032C20.9972 14.3124 20.922 14.3564 20.8954 14.3282C20.8687 14.3 20.8575 14.2607 20.9141 14.2123C20.9441 14.1865 20.972 14.1582 20.9972 14.1277C21.0407 14.08 21.0885 14.0366 21.1401 13.9978C21.1747 13.976 21.1875 13.9303 21.2627 13.9303C21.3379 13.9303 21.3332 13.9458 21.371 13.9303C21.4088 13.9148 21.4446 13.9394 21.4904 13.9303C21.5361 13.9212 21.527 13.8962 21.6066 13.8866C21.6662 13.8861 21.7247 13.8699 21.7761 13.8398C21.8482 13.8 21.9815 13.7301 22.0615 13.7206C22.1415 13.7111 22.1431 13.6861 22.1164 13.6892C22.0897 13.6924 22.0082 13.6749 22.0599 13.6626C22.1116 13.6503 22.1964 13.6392 22.1964 13.6626C22.1964 13.6861 22.2159 13.698 22.2326 13.6817C22.2493 13.6654 22.231 13.642 22.2891 13.642C22.3473 13.642 22.368 13.6479 22.3755 13.6654C22.3831 13.6829 22.4523 13.6813 22.4726 13.6686C22.4726 13.6686 22.5025 13.6606 22.5088 13.642C22.5152 13.6233 22.5697 13.6388 22.6326 13.642C22.6955 13.6452 22.6342 13.6694 22.6875 13.6718C22.7409 13.6741 22.6883 13.7012 22.6987 13.7139C22.709 13.7266 22.7285 13.7155 22.7488 13.7436C22.7691 13.7718 22.7616 13.7905 22.7222 13.7969C22.6828 13.8032 22.6593 13.7516 22.6672 13.7814C22.6752 13.8112 22.6832 13.8255 22.7269 13.8394C22.7707 13.8533 22.7962 13.8425 22.7819 13.8644C22.7675 13.8862 22.7361 13.8644 22.7457 13.8862C22.7552 13.9081 22.7847 13.9081 22.8193 13.9363C22.8539 13.9645 22.8806 13.9692 22.8854 14.0209C22.8848 14.039 22.8878 14.0571 22.8943 14.0741C22.9008 14.0911 22.9106 14.1066 22.9232 14.1197C22.953 14.1682 22.9355 14.1352 22.9295 14.1714C22.9296 14.1846 22.9268 14.1978 22.9214 14.2099C22.916 14.222 22.908 14.2328 22.8981 14.2417C22.8666 14.281 22.8308 14.2806 22.76 14.2715C22.6891 14.2623 22.7019 14.2309 22.6657 14.2151C22.6322 14.1947 22.6025 14.1687 22.5777 14.1384C22.5622 14.1229 22.5558 14.0665 22.5558 14.1448C22.5558 14.223 22.5594 14.1853 22.5685 14.2119C22.5777 14.2385 22.5606 14.2572 22.5339 14.2715C22.5073 14.2857 22.5057 14.3092 22.4838 14.3592C22.4619 14.4093 22.5073 14.3795 22.512 14.414C22.5131 14.4278 22.5188 14.4409 22.5281 14.4511C22.5375 14.4614 22.5501 14.4681 22.5638 14.4704C22.5694 14.4718 22.5752 14.4717 22.5808 14.4702C22.5863 14.4687 22.5914 14.4659 22.5956 14.462C22.5998 14.458 22.603 14.4531 22.6048 14.4476C22.6066 14.4422 22.607 14.4364 22.606 14.4307C22.6044 14.4073 22.5813 14.4307 22.5765 14.4073C22.5717 14.3838 22.5578 14.3616 22.5984 14.3493C22.639 14.337 22.6501 14.3664 22.6816 14.4025C22.713 14.4386 22.7265 14.4351 22.7425 14.4291C22.7584 14.4232 22.76 14.3838 22.7584 14.3636C22.7568 14.3433 22.7739 14.3211 22.8288 14.3135C22.8626 14.3068 22.895 14.2946 22.9248 14.2774C22.953 14.2671 22.9685 14.3147 23 14.3171C23.0314 14.3195 23.0374 14.2933 23.0517 14.2774C23.066 14.2615 23.0422 14.2317 23.0422 14.2147C23.0422 14.1976 23.0875 14.1642 23.1019 14.1535C23.1162 14.1428 23.1003 14.1174 23.1098 14.1003C23.1194 14.0832 23.1301 14.0844 23.1552 14.1003C23.1803 14.1162 23.2141 14.1237 23.2117 14.1599C23.2093 14.196 23.201 14.1964 23.1695 14.2039C23.1381 14.2115 23.1369 14.1908 23.1194 14.2115C23.1019 14.2321 23.0895 14.2663 23.1349 14.2822C23.15 14.2897 23.1675 14.2914 23.1838 14.2867C23.2 14.2821 23.214 14.2716 23.2229 14.2572C23.2447 14.2305 23.2308 14.2226 23.2666 14.2194C23.3012 14.2166 23.3349 14.2071 23.3657 14.1912C23.3777 14.181 23.3917 14.1732 23.4067 14.1684C23.4217 14.1635 23.4376 14.1617 23.4533 14.163C23.511 14.163 23.5046 14.1487 23.5329 14.1317C23.5612 14.1146 23.5799 14.1412 23.5659 14.1678C23.552 14.1944 23.5007 14.2035 23.5472 14.2147C23.5938 14.2258 23.5799 14.202 23.6268 14.1881C23.6738 14.1742 23.6547 14.2004 23.6973 14.1881C23.7399 14.1757 23.7271 14.1515 23.7586 14.1551C23.79 14.1587 23.8051 14.1527 23.8039 14.1948C23.8027 14.2369 23.8047 14.2425 23.8199 14.2278C23.835 14.2131 23.8465 14.1833 23.8748 14.1881C23.903 14.1928 23.8983 14.1833 23.8748 14.1567C23.8513 14.1301 23.8732 14.1209 23.8417 14.0927C23.8103 14.0645 23.8019 14.0475 23.8151 14.0332C23.8282 14.0189 23.8143 13.9831 23.8549 14.0252C23.8955 14.0673 23.8561 14.0915 23.9237 14.0927C23.9914 14.0939 23.9894 14.0975 24.0571 14.138C24.1247 14.1785 24.1156 14.1805 24.1578 14.1912C24.1999 14.202 24.2095 14.2536 24.2298 14.2583C24.2501 14.2631 24.2485 14.2317 24.2533 14.2099C24.2581 14.1881 24.2473 14.1865 24.2298 14.1849C24.2123 14.1833 24.2143 14.1475 24.2047 14.1348C24.1952 14.1221 24.1701 14.1428 24.1621 14.1253C24.1589 14.1178 24.1586 14.1093 24.1612 14.1015C24.1639 14.0938 24.1693 14.0872 24.1765 14.0832C24.1888 14.0769 24.1844 14.0423 24.1844 14.0252C24.1844 14.0081 24.1609 14.0189 24.1578 13.9923C24.1546 13.9657 24.2031 13.9379 24.2282 13.9236C24.2533 13.9093 24.2533 13.8767 24.2533 13.839C24.2533 13.8012 24.2919 13.8143 24.2971 13.7937C24.3022 13.773 24.2867 13.756 24.3369 13.7591C24.387 13.7623 24.3488 13.7921 24.3556 13.8076C24.3623 13.8231 24.3671 13.8088 24.3954 13.8263C24.4236 13.8437 24.4093 13.8811 24.3906 13.9156C24.3719 13.9502 24.3703 13.9406 24.3954 13.9704C24.4204 14.0002 24.4141 14.0475 24.4173 14.1193C24.4204 14.1912 24.4173 14.1849 24.4439 14.2131C24.4553 14.2243 24.4633 14.2384 24.4672 14.2539C24.4711 14.2694 24.4706 14.2856 24.4658 14.3008C24.4594 14.337 24.4348 14.31 24.4236 14.3429C24.4125 14.3759 24.4188 14.3842 24.3623 14.4184C24.3058 14.4525 24.2489 14.3997 24.2791 14.4371C24.3094 14.4744 24.3528 14.4553 24.389 14.4573C24.4252 14.4593 24.4204 14.4287 24.4407 14.4196C24.461 14.4105 24.4833 14.4105 24.4861 14.3759C24.4889 14.3413 24.5191 14.3227 24.5287 14.2929C24.5382 14.2631 24.5152 14.246 24.5132 14.2162C24.5112 14.1865 24.5442 14.1881 24.5928 14.1865C24.6413 14.1849 24.6461 14.2206 24.6413 14.2615C24.6366 14.3024 24.6477 14.2989 24.6712 14.3163C24.6947 14.3338 24.7341 14.3318 24.7293 14.3131C24.7245 14.2945 24.6943 14.3132 24.6819 14.2945C24.6696 14.2758 24.6883 14.254 24.6819 14.2444C24.6749 14.2259 24.6713 14.2063 24.6712 14.1865C24.6712 14.171 24.6441 14.1726 24.6003 14.1614C24.5566 14.1503 24.5454 14.1618 24.5016 14.1694C24.4578 14.1769 24.4718 14.1456 24.467 14.1003C24.4622 14.055 24.4905 14.0316 24.467 13.9986C24.4435 13.9657 24.4372 13.9688 24.434 13.939C24.4308 13.9093 24.4682 13.8934 24.4857 13.8811C24.5032 13.8687 24.4937 13.8465 24.4734 13.8231C24.4531 13.7996 24.4499 13.7937 24.4531 13.781C24.4563 13.7683 24.4674 13.7782 24.5048 13.8139C24.5422 13.8497 24.5172 13.8735 24.5203 13.9156C24.5235 13.9577 24.5191 13.9657 24.5566 13.9657C24.594 13.9657 24.6461 13.9811 24.6445 13.9657C24.6429 13.9502 24.6051 13.9565 24.5753 13.9375C24.5704 13.9349 24.566 13.9314 24.5626 13.9272C24.5591 13.9229 24.5565 13.918 24.5551 13.9127C24.5536 13.9074 24.5533 13.9018 24.5541 13.8964C24.5549 13.8909 24.5568 13.8857 24.5597 13.8811C24.5657 13.8672 24.6381 13.8926 24.6083 13.8779C24.5784 13.8632 24.5641 13.8552 24.5753 13.8382C24.5864 13.8211 24.5956 13.8417 24.6115 13.8477C24.6274 13.8537 24.6771 13.8461 24.707 13.8695C24.7368 13.893 24.7683 13.8787 24.7965 13.8882C24.8248 13.8977 24.828 13.9271 24.8085 13.9335C24.789 13.9398 24.8077 13.9716 24.8328 13.976C24.8578 13.9803 24.828 14.0475 24.8578 14.0554C24.8785 14.0612 24.8989 14.0683 24.9187 14.0765C24.8678 14.0498 24.9 14.0054 24.8702 13.9772C24.8403 13.949 24.8606 13.9128 24.8168 13.8846C24.7731 13.8564 24.8033 13.8648 24.7528 13.8473C24.7022 13.8298 24.7114 13.8298 24.7054 13.8C24.6994 13.7703 24.668 13.7762 24.6931 13.7436C24.7181 13.7111 24.7977 13.7012 24.8419 13.6936C24.8861 13.6861 24.9016 13.6892 24.9016 13.6813C24.9016 13.6734 24.8933 13.6626 24.8618 13.6547C24.8304 13.6467 24.8316 13.6186 24.8379 13.5904C24.8443 13.5622 24.9104 13.526 24.9605 13.4994C25.0107 13.4728 24.9872 13.4649 25.0139 13.4478C25.0405 13.4307 25.0827 13.4525 25.1034 13.4355C25.1255 13.4191 25.146 13.4007 25.1647 13.3807C25.1802 13.3604 25.1536 13.3588 25.1551 13.329C25.1567 13.2992 25.1404 13.2643 25.1926 13.2536C25.2447 13.2429 25.2288 13.2865 25.2523 13.2865C25.2757 13.2865 25.2952 13.2802 25.3012 13.3116C25.3072 13.3429 25.3307 13.3334 25.3386 13.3068C25.3466 13.2802 25.353 13.2834 25.3812 13.2774C25.3942 13.272 25.4085 13.2701 25.4225 13.272C25.4365 13.2739 25.4497 13.2795 25.4608 13.2881C25.4859 13.31 25.5153 13.2861 25.5579 13.3366C25.6005 13.387 25.5818 13.3997 25.5691 13.4418C25.5563 13.4839 25.5643 13.5344 25.5424 13.5733C25.5205 13.6122 25.5285 13.667 25.5392 13.6654C25.55 13.6638 25.5516 13.6456 25.5563 13.609C25.5611 13.5725 25.5762 13.5757 25.5925 13.5693C25.6089 13.563 25.6511 13.5193 25.6323 13.5177C25.6136 13.5161 25.5949 13.5018 25.5981 13.4847C25.6013 13.4676 25.6319 13.4815 25.6574 13.4815C25.6829 13.4815 25.6901 13.4486 25.7139 13.4815C25.7378 13.5145 25.7601 13.5141 25.7502 13.4954C25.7402 13.4768 25.7299 13.4597 25.78 13.4299C25.8302 13.4001 25.8477 13.414 25.8664 13.4299C25.8696 13.4333 25.8736 13.4358 25.878 13.4373C25.8825 13.4387 25.8872 13.4389 25.8918 13.4379C25.8963 13.437 25.9006 13.4349 25.9041 13.4318C25.9076 13.4287 25.9102 13.4248 25.9117 13.4204C25.9229 13.4017 26.0136 13.4112 26.0216 13.4017C26.0295 13.3922 26.0093 13.3711 25.9762 13.364C25.9432 13.3568 25.9352 13.3298 25.9714 13.3171C26.0077 13.3044 26.0483 13.3294 26.0845 13.3592C26.0937 13.3677 26.1045 13.3742 26.1164 13.3783C26.1282 13.3824 26.1408 13.384 26.1533 13.383C26.1529 13.3656 26.1568 13.3483 26.1645 13.3326C26.1768 13.3076 26.1911 13.3576 26.2194 13.3687C26.2655 13.3892 26.314 13.4033 26.3639 13.4108C26.4108 13.4132 26.3806 13.3854 26.3682 13.3711C26.3559 13.3568 26.301 13.3441 26.2978 13.3286C26.2946 13.3131 26.3714 13.3195 26.3826 13.3131C26.3937 13.3068 26.3889 13.2564 26.4092 13.2472C26.4295 13.2381 26.4407 13.2321 26.4391 13.2147C26.4375 13.1972 26.3826 13.1896 26.3543 13.1833C26.3261 13.1769 26.3448 13.1563 26.3261 13.1392C26.3074 13.1221 26.3511 13.0907 26.3794 13.0641C26.4076 13.0375 26.4375 13.0554 26.4327 13.0375C26.4279 13.0197 26.4518 13.001 26.4753 12.9978C26.4988 12.9946 26.4924 13.0228 26.5127 13.0244C26.533 13.026 26.5665 13.0125 26.6055 13.0149C26.6445 13.0173 26.6337 12.9938 26.6242 12.9752C26.6161 12.9628 26.6118 12.9484 26.6118 12.9337C26.6118 12.9189 26.6161 12.9045 26.6242 12.8922C26.6476 12.8672 26.6652 12.8763 26.7169 12.895C26.7686 12.9136 26.8188 12.9104 26.8001 12.895C26.7241 12.8318 26.8116 12.8259 26.744 12.7774C26.6763 12.729 26.7109 12.7039 26.6795 12.6944C26.648 12.6849 26.6624 12.6523 26.6528 12.6348C26.643 12.6008 26.647 12.5643 26.664 12.5332C26.6811 12.5161 26.7161 12.4931 26.7264 12.4784C26.7368 12.4637 26.785 12.4637 26.8021 12.4637C26.7777 12.4618 26.754 12.4545 26.7328 12.4422C26.7061 12.4236 26.728 12.4033 26.7547 12.389L26.7448 12.3568C26.7014 12.3568 26.6397 12.3231 26.5947 12.3076C26.5497 12.2921 26.5716 12.2548 26.5151 12.2389C26.4586 12.223 26.449 12.2889 26.4303 12.2921C26.4116 12.2953 26.3456 12.248 26.3237 12.2293C26.3018 12.2107 26.1637 12.2139 26.0662 12.1857C26.0156 12.1711 25.9672 12.15 25.9221 12.1229C25.8644 12.0979 25.8839 12.0677 25.8246 12.0633C25.7653 12.059 25.6924 11.9927 25.6331 11.9839C25.5738 11.9752 25.5547 11.9506 25.5046 11.9442C25.4544 11.9378 25.4329 11.9037 25.3541 11.891C25.2753 11.8783 25.1934 11.8723 25.0839 11.8564C24.9745 11.8405 24.9963 11.8124 24.9585 11.8219C24.9207 11.8314 24.8801 11.8155 24.7703 11.8064C24.6811 11.7988 24.6167 11.7849 24.594 11.7849C24.5888 11.7849 24.5852 11.7873 24.5852 11.7873C24.582 11.7969 24.5975 11.8064 24.6322 11.8171C24.6668 11.8278 24.6397 11.8437 24.6668 11.8501C24.6939 11.8564 24.7078 11.8199 24.7735 11.8346C24.8391 11.8493 24.8618 11.8493 24.8646 11.8743C24.8674 11.8993 24.7798 11.9085 24.6919 11.893C24.6039 11.8775 24.5506 11.8902 24.5068 11.8711C24.4381 11.8523 24.3674 11.8418 24.2963 11.8398C24.2023 11.8294 24.227 11.8608 24.1864 11.8795C24.1458 11.8981 24.1211 11.8576 24.0989 11.8326C24.0766 11.8076 23.9655 11.8167 23.8632 11.8167C23.761 11.8167 23.8047 11.8366 23.8008 11.8763C23.7968 11.916 23.8577 11.9156 23.9233 11.9502C23.989 11.9847 23.9671 11.9907 23.8668 11.9815C23.7665 11.9724 23.7693 11.9815 23.7442 12.0097C23.7192 12.0379 23.6817 12.0351 23.7005 12.0629C23.7192 12.0907 23.7697 12.0101 23.8449 12.0256C23.9202 12.0411 23.9858 12.032 23.989 12.0629C23.9922 12.0939 24.0551 12.0915 23.9452 12.1571C23.8354 12.2226 23.7852 12.2691 23.6817 12.273C23.5783 12.277 23.5755 12.2508 23.5468 12.1976C23.5182 12.1444 23.5719 12.1289 23.5182 12.1289C23.4644 12.1289 23.4999 12.0256 23.4684 12.0177C23.437 12.0097 23.3741 12.0129 23.4306 11.9911C23.4871 11.9692 23.587 11.9474 23.6093 11.9192C23.6316 11.891 23.7383 11.8779 23.7474 11.8687C23.7566 11.8596 23.7315 11.8501 23.628 11.8533C23.5484 11.8556 23.3745 11.8485 23.3096 11.862C23.2921 11.866 23.2845 11.8711 23.2845 11.8783C23.2941 11.9128 23.4636 11.8405 23.5484 11.8783C23.6332 11.916 23.4732 11.916 23.4636 11.9442C23.4541 11.9724 23.3411 11.9688 23.3442 11.9815C23.3474 11.9942 23.2973 12.0038 23.0808 11.9974C22.8643 11.9911 22.9709 12.0189 22.9144 12.0347C22.8579 12.0506 22.795 12.0475 22.748 12.0725C22.7011 12.0975 22.6513 12.0602 22.5849 12.0725C22.5184 12.0848 22.3122 12.1634 22.2398 12.1789C22.1674 12.1944 22.2243 12.1567 22.2712 12.1416C22.3182 12.1265 22.4153 12.0943 22.403 12.0911C22.328 12.0952 22.254 12.1101 22.1833 12.1352C22.1768 12.1386 22.1697 12.1405 22.1625 12.1408C22.1552 12.1411 22.148 12.1399 22.1413 12.1371C22.1346 12.1344 22.1285 12.1302 22.1236 12.1248C22.1187 12.1195 22.115 12.1131 22.1128 12.1062C20.9341 12.5091 19.89 13.2297 19.0963 14.1881C18.3025 15.1464 17.79 16.3053 17.6154 17.5364C17.6154 17.5364 17.8009 16.9307 17.8542 16.7321C17.9076 16.5336 17.9199 16.468 17.9828 16.4144C18.0457 16.3608 18.0489 16.3203 18.0739 16.2953C18.099 16.2703 18.146 16.248 18.1647 16.2262C18.1834 16.2043 18.2077 16.1666 18.2276 16.1698C18.2475 16.173 18.2339 16.2262 18.2873 16.1889C18.3273 16.1602 18.3586 16.1212 18.378 16.0761C18.3995 16.0294 18.4318 15.9886 18.4723 15.9569C18.532 15.9053 18.5368 15.9021 18.5587 15.9053C18.5722 15.9097 18.5868 15.9094 18.6001 15.9046C18.6134 15.8998 18.6248 15.8907 18.6323 15.8787C18.663 15.8469 18.6966 15.818 18.7326 15.7925C18.7625 15.7659 18.7346 15.7583 18.7768 15.6924C18.819 15.6265 18.78 15.6325 18.7768 15.5919C18.7736 15.5514 18.7609 15.528 18.8066 15.4839C18.8379 15.4613 18.8596 15.4279 18.8675 15.3902C18.8695 15.3714 18.876 15.3533 18.8864 15.3375C18.8968 15.3217 18.9108 15.3086 18.9272 15.2993C18.9887 15.2556 19.0415 15.2009 19.0829 15.138C19.1139 15.0784 19.1465 15.0725 19.1656 15.0363C19.1847 15.0002 19.1911 14.9625 19.2162 14.9657C19.2413 14.9688 19.2759 14.9581 19.293 14.9657C19.3101 14.9732 19.299 14.9927 19.2803 15.0129C19.2616 15.0332 19.2958 15.0455 19.3014 15.0645C19.3069 15.0836 19.2914 15.1503 19.3014 15.163C19.3113 15.1757 19.3443 15.1734 19.3412 15.2055C19.338 15.2377 19.3471 15.2854 19.3726 15.2774C19.3981 15.2695 19.4526 15.1956 19.492 15.1583C19.5314 15.1209 19.5891 15.0864 19.605 15.0268C19.621 14.9672 19.6616 14.9454 19.6679 14.9188C19.6743 14.8922 19.6691 14.7857 19.6866 14.7639C19.7041 14.7421 19.7352 14.6932 19.7495 14.698C19.7638 14.7027 19.7734 14.7218 19.7873 14.7278C19.8013 14.7337 19.7825 14.7579 19.7762 14.7734C19.7698 14.7889 19.7821 14.8139 19.7997 14.8076C19.8172 14.8012 19.8279 14.7643 19.853 14.7421C19.8781 14.7198 19.9015 14.7055 19.9031 14.723C19.9047 14.7405 19.8797 14.7607 19.8781 14.7842C19.8765 14.8076 19.8972 14.8 19.9127 14.7953C19.9311 14.7858 19.9518 14.782 19.9724 14.7842C19.9927 14.7905 19.9975 14.8092 20.0178 14.7873C20.0381 14.7655 20.0544 14.7309 20.0886 14.7373C20.1228 14.7437 20.093 14.756 20.1591 14.7512C20.2007 14.7502 20.2407 14.7348 20.2721 14.7075C20.3067 14.6853 20.3314 14.6583 20.3425 14.6678C20.3537 14.6773 20.3099 14.7135 20.3238 14.7151C20.3378 14.7166 20.3569 14.6595 20.3819 14.6662C20.402 14.6721 20.4203 14.6829 20.4353 14.6976C20.4476 14.7087 20.4898 14.6777 20.5041 14.69C20.5184 14.7023 20.4978 14.7309 20.4854 14.7464C20.4731 14.7619 20.4918 14.7683 20.5169 14.7433C20.5321 14.7279 20.5502 14.7156 20.5702 14.7071C20.5943 14.685 20.6121 14.6569 20.6219 14.6257C20.628 14.5996 20.6397 14.5751 20.6563 14.5539C20.6729 14.5328 20.6939 14.5156 20.7178 14.5034C20.8002 14.4565 20.8082 14.4426 20.877 14.4347C20.9459 14.4267 20.971 14.4267 20.9618 14.4486M21.0088 14.4486H20.9618M21.0088 14.4486C20.9888 14.4784 20.9716 14.5106 20.9594 14.5443C20.9318 14.5934 20.898 14.6386 20.8587 14.6789C20.8276 14.7119 20.84 14.721 20.8587 14.7369C20.8774 14.7528 20.9152 14.7151 20.9403 14.7023C20.9653 14.6896 20.9876 14.7321 21.0143 14.7274C21.0409 14.7226 21.1584 14.6178 21.2133 14.5788C21.2682 14.5399 21.2634 14.53 21.3327 14.5272C21.4019 14.5244 21.3725 14.5066 21.4047 14.4927C21.437 14.4788 21.4378 14.4863 21.4692 14.447C21.5006 14.4077 21.4831 14.3815 21.4787 14.3374C21.4744 14.2933 21.5492 14.2623 21.6403 14.2107C21.7315 14.1591 21.7844 14.167 21.8473 14.1606C21.9102 14.1543 21.9384 14.1209 21.995 14.0792C22.0515 14.0375 22.0753 14.0066 22.1116 14.0348C22.1474 14.0629 22.1633 14.0939 22.1255 14.1364C22.0877 14.1789 21.9623 14.2008 21.8712 14.2226C21.8045 14.2416 21.7476 14.2852 21.712 14.3445C21.6886 14.3777 21.6593 14.4064 21.6256 14.4291C21.5914 14.451 21.6021 14.5105 21.6021 14.5514C21.6021 14.5923 21.6698 14.5765 21.7546 14.5812C21.8393 14.586 21.8282 14.6094 21.8672 14.6078C21.9062 14.6062 21.8863 14.6579 21.905 14.6654C21.9237 14.673 21.9599 14.692 21.9333 14.7127C21.9066 14.7333 21.9237 14.6952 21.872 14.6936C21.8202 14.692 21.8139 14.7158 21.7888 14.7174C21.7637 14.719 21.749 14.7127 21.7402 14.6777C21.7315 14.6428 21.6606 14.6261 21.6037 14.6309C21.5468 14.6356 21.5408 14.6706 21.5269 14.7103C21.513 14.75 21.5237 14.7635 21.4831 14.8056C21.4425 14.8477 21.4266 14.8684 21.4059 14.8636C21.3852 14.8588 21.4107 14.7806 21.3952 14.7587C21.3796 14.7369 21.3008 14.7869 21.2411 14.8417C21.1814 14.8965 21.1488 14.9764 21.1217 14.9827C21.0947 14.9891 21.0983 14.9529 21.0792 14.9498C21.0601 14.9466 21.0604 14.9895 21.0195 14.9934C20.9785 14.9974 20.9617 14.9827 20.9773 14.9653C20.9809 14.9624 20.9839 14.9587 20.9859 14.9545C20.9879 14.9503 20.989 14.9457 20.989 14.941C20.989 14.9364 20.9879 14.9318 20.9859 14.9276C20.9839 14.9234 20.9809 14.9197 20.9773 14.9168C20.9617 14.8981 20.8658 14.9013 20.7954 14.9029C20.7249 14.9045 20.7373 14.8572 20.7405 14.837C20.7436 14.8167 20.797 14.7973 20.7592 14.7949C20.7214 14.7925 20.6621 14.8104 20.6445 14.7949C20.627 14.7794 20.6712 14.7714 20.6636 14.7524C20.6553 14.731 20.6537 14.7076 20.6589 14.6853C20.6639 14.6579 20.6779 14.6331 20.6987 14.6146C20.7098 14.6114 20.6987 14.665 20.7221 14.6618C20.7456 14.6587 20.7444 14.6352 20.7428 14.6114C20.7413 14.5876 20.7663 14.6114 20.8117 14.582C20.8571 14.5526 20.8495 14.549 20.8666 14.5129C20.8837 14.4768 20.9523 14.4708 20.9618 14.4486M19.6527 15.8104C19.6525 15.8383 19.6431 15.8654 19.626 15.8874C19.619 15.8975 19.6096 15.9055 19.5986 15.9108M19.6527 15.8104C19.6527 15.7885 19.6336 15.7707 19.6149 15.7854C19.5962 15.8 19.55 15.8306 19.554 15.8779C19.5571 15.9176 19.5412 15.9176 19.5631 15.9176C19.5753 15.9185 19.5875 15.9161 19.5986 15.9108M19.6527 15.8104C19.6511 15.7885 19.6337 15.7711 19.615 15.7842C19.5963 15.7973 19.5501 15.8294 19.5541 15.8767C19.5573 15.9164 19.5414 15.9164 19.5633 15.9164C19.5754 15.9173 19.5876 15.916 19.5986 15.9108M19.5476 16.0217C19.5237 16.059 19.4823 16.1193 19.4616 16.146C19.4409 16.1726 19.4354 16.1869 19.3956 16.1757C19.3327 16.1579 19.3438 16.1849 19.3956 16.1054C19.4473 16.026 19.466 15.9323 19.4943 15.9466C19.5225 15.9609 19.5699 15.9823 19.5464 16.022L19.5476 16.0217ZM19.5476 16.0217C19.5711 15.9839 19.5236 15.9605 19.4953 15.9462C19.4671 15.9323 19.4484 16.0264 19.3967 16.1062C19.3449 16.186 19.3338 16.1586 19.3967 16.1765C19.4357 16.1864 19.4424 16.1733 19.4627 16.1467C19.483 16.1201 19.5241 16.0594 19.5476 16.0217ZM17.5521 18.4736C17.5495 20.2108 18.2227 21.8812 19.4299 23.1329C19.3584 23.0191 19.2793 22.9103 19.1931 22.8072C19.0987 22.7071 19.086 22.6571 19.0864 22.6217C19.0209 22.5701 18.9647 22.5077 18.9204 22.4371C18.8416 22.3148 18.7632 22.1928 18.7099 22.1051C18.6566 22.0173 18.6406 21.974 18.6534 21.9236C18.6661 21.8731 18.6068 21.8505 18.6191 21.8044C18.6315 21.7584 18.6359 21.7802 18.5941 21.6456C18.5523 21.5109 18.4842 21.2794 18.3931 21.0538C18.3019 20.8283 18.2677 20.7282 18.2582 20.675C18.2218 20.6172 18.1992 20.5518 18.1921 20.4839C18.1889 20.3898 18.2012 20.3398 18.1921 20.2802C18.1829 20.2206 18.2207 20.2206 18.2112 20.1487C18.2016 20.0769 18.1889 19.9323 18.1388 19.8636C18.0886 19.7949 18.0663 19.7977 18.0257 19.7258C17.9851 19.6539 17.9883 19.6575 17.9788 19.557C17.9692 19.4565 17.9573 19.4041 17.9099 19.3501C17.8625 19.2961 17.8661 19.2564 17.8283 19.2564C17.7905 19.2564 17.7404 19.1809 17.7216 19.1058C17.7106 19.0576 17.6867 19.0133 17.6524 18.9776C17.6241 18.9398 17.6241 18.8711 17.6054 18.7584C17.582 18.6553 17.5642 18.5511 17.5521 18.4462V18.4736ZM29.2011 21.9923C29.1907 21.9978 29.0873 22.0582 29.0514 22.0761C29.0156 22.0939 29.0092 22.0713 28.9527 22.1138C28.8962 22.1563 28.8731 22.1841 28.8234 22.1889C28.7736 22.1936 28.7438 22.25 28.7279 22.2357C28.7119 22.2214 28.708 22.1936 28.6419 22.2357C28.5758 22.2778 28.4855 22.2754 28.4536 22.3501C28.4218 22.4248 28.5006 22.3719 28.5241 22.3815C28.5476 22.391 28.5667 22.3719 28.5901 22.3505C28.6136 22.3291 28.6841 22.3437 28.7279 22.3505C28.7716 22.3572 28.8206 22.283 28.8739 22.283C28.9273 22.283 28.9432 22.2361 28.9854 22.2457C29.0276 22.2552 29.1267 22.1797 29.1645 22.1468C29.2023 22.1138 29.2632 22.0908 29.2866 22.0717C29.3101 22.0526 29.2727 22.0435 29.2258 22.0483C29.1788 22.053 29.1501 22.0999 29.1219 22.0999C29.0936 22.0999 29.1903 22.0034 29.2011 21.9923ZM30.3019 20.4335C30.3083 20.3993 30.3147 20.3429 30.3019 20.3521C30.2892 20.3612 30.2896 20.3866 30.2801 20.3993C30.2705 20.4121 30.2801 20.3521 30.255 20.3521C30.1921 20.3521 30.2422 20.468 30.2331 20.4931C30.2239 20.5181 30.2172 20.6372 30.2438 20.6341C30.2705 20.6309 30.2438 20.5653 30.2705 20.5276C30.2902 20.5001 30.3011 20.4673 30.3019 20.4335ZM30.1881 19.8775C30.1905 19.8235 30.1694 19.8283 30.1551 19.7945C30.1408 19.7607 30.1766 19.6754 30.1551 19.673C30.1336 19.6706 30.1105 19.6448 30.1077 19.6988C30.1049 19.7528 30.0942 19.7484 30.0799 19.7782C30.0633 19.8181 30.0492 19.8589 30.0377 19.9005C30.0233 19.9466 30.0233 19.9085 29.9951 19.9005C29.9668 19.8926 29.9716 19.9287 29.9481 19.9684C29.9242 20.0005 29.9104 20.0389 29.9083 20.0788C29.9083 20.1285 29.8474 20.1376 29.8781 20.1472C29.9087 20.1567 29.8781 20.1472 29.9016 20.1472C29.925 20.1472 29.9342 20.0836 29.9485 20.0697C29.9642 20.0469 29.9758 20.0215 29.9828 19.9947C29.9931 19.9641 30.0122 19.9665 30.0313 19.9665C30.0504 19.9665 30.0405 19.9899 30.0313 20.0368C30.029 20.0459 30.0286 20.0554 30.0302 20.0646C30.0319 20.0739 30.0355 20.0827 30.0408 20.0905C30.0461 20.0983 30.053 20.1048 30.061 20.1097C30.0691 20.1146 30.0781 20.1178 30.0874 20.119C30.1205 20.1213 30.1368 20.0979 30.1392 20.0578C30.1434 20.0324 30.1376 20.0063 30.1228 19.9851C30.1188 19.9719 30.1177 19.9579 30.1197 19.9441C30.1217 19.9304 30.1267 19.9173 30.1344 19.9057C30.1463 19.8946 30.165 19.9827 30.177 19.9804C30.1889 19.978 30.1857 19.9315 30.1881 19.8775ZM30.0854 20.64C30.095 20.6055 30.142 20.5459 30.1292 20.5304C30.1165 20.5149 30.0894 20.5618 30.054 20.6213C30.0186 20.6809 30.0142 20.7008 29.9847 20.6964C29.9553 20.692 29.9286 20.7619 29.8844 20.7901C29.8403 20.8183 29.8092 20.8092 29.7953 20.8561C29.7814 20.9029 29.7404 20.9549 29.7746 20.9657C29.8144 20.978 29.8279 20.947 29.847 20.9343C29.8661 20.9216 29.8438 20.8779 29.8614 20.8549C29.8789 20.8318 29.8908 20.8894 29.9191 20.8704C29.9483 20.8437 29.9709 20.8105 29.9847 20.7735C29.9903 20.7548 30.0385 20.7734 30.0572 20.7607C30.0759 20.748 30.0759 20.6746 30.0854 20.64ZM30.0667 21.4621C30.1041 21.4089 30.1121 21.3882 30.1065 21.3827C30.101 21.3771 30.0424 21.4418 29.9891 21.4951C29.9393 21.5484 29.9031 21.613 29.8836 21.6833C29.8697 21.7381 29.8546 21.7905 29.8665 21.7802C29.9067 21.733 29.9386 21.6792 29.9609 21.6213C29.9912 21.5653 30.0266 21.5117 30.0667 21.4621ZM30.089 19.5491C30.1125 19.5395 30.089 19.4339 30.0584 19.3846C30.0277 19.3354 29.9971 19.4244 29.9788 19.4339C29.9605 19.4434 29.9481 19.3823 29.9342 19.3469C29.9203 19.3116 29.8586 19.3144 29.8279 19.3211C29.7973 19.3279 29.814 19.387 29.7953 19.3918C29.7766 19.3966 29.7555 19.3124 29.7455 19.2766C29.7356 19.2409 29.7623 19.2063 29.7718 19.138C29.7824 19.0908 29.7824 19.0419 29.7718 18.9947C29.7599 18.9549 29.7412 18.9526 29.7479 18.9124C29.7547 18.8723 29.7129 18.8985 29.6655 18.9267C29.6182 18.9549 29.607 18.9406 29.6047 19.0161C29.6023 19.0916 29.6257 19.1476 29.6397 19.2178L29.6305 19.2365C29.621 19.2556 29.6257 19.2814 29.6329 19.3588C29.6401 19.4363 29.654 19.4176 29.701 19.4549C29.7479 19.4923 29.7455 19.5209 29.7292 19.5209C29.7129 19.5209 29.7364 19.5868 29.767 19.6217C29.7977 19.6567 29.7977 19.6337 29.8044 19.5796C29.8112 19.5256 29.8021 19.5399 29.7786 19.5113C29.7739 19.5054 29.7704 19.4986 29.7685 19.4914C29.7665 19.4841 29.7661 19.4765 29.7672 19.469C29.7683 19.4616 29.771 19.4544 29.775 19.448C29.779 19.4417 29.7843 19.4362 29.7905 19.4319C29.8092 19.418 29.8399 19.4319 29.8518 19.3966C29.8637 19.3612 29.8988 19.3898 29.9151 19.4109C29.9314 19.4319 29.9127 19.4931 29.9481 19.5189C29.9835 19.5447 29.9692 19.4792 29.9835 19.4577C29.9979 19.4363 30.021 19.4696 30.021 19.4974C30.0172 19.5282 30.0205 19.5594 30.0305 19.5888C30.0448 19.617 30.054 19.6523 30.0751 19.6523C30.0962 19.6523 30.0659 19.5586 30.089 19.5491ZM30.0293 19.7369C30.0464 19.7182 30.0496 19.7039 30.0293 19.6781C30.009 19.6523 30.0019 19.6313 29.9895 19.6313C29.9772 19.6313 29.9752 19.671 29.9565 19.6654C29.9378 19.6599 29.9485 19.6384 29.9418 19.6126C29.935 19.5868 29.9258 19.5888 29.9139 19.5935C29.902 19.5983 29.8916 19.615 29.8697 19.615C29.8478 19.615 29.8435 19.6289 29.8411 19.6547C29.8387 19.6805 29.8622 19.7087 29.8411 19.723C29.8112 19.7429 29.8434 19.8024 29.8598 19.7949C29.8761 19.7873 29.8996 19.7393 29.9091 19.7274C29.9187 19.7155 29.9187 19.754 29.9091 19.7782C29.8996 19.8024 29.8645 19.8402 29.8904 19.8636C29.9163 19.887 29.9469 19.8966 29.9613 19.8779C29.9756 19.8592 29.9613 19.8151 29.98 19.802C29.9987 19.7889 30.0122 19.7556 30.0293 19.7369ZM29.9338 20.9887C29.9597 20.9581 29.9855 20.8946 29.9712 20.8878C29.9569 20.8811 29.8773 20.9816 29.8442 21.007C29.8112 21.0324 29.8232 21.0753 29.7949 21.08C29.7666 21.0848 29.7666 21.0328 29.7642 21.0093C29.7619 20.9859 29.7432 20.9883 29.7312 21.0375C29.7256 21.0725 29.7101 21.1051 29.6866 21.1317C29.6584 21.169 29.6747 21.2206 29.6679 21.2679C29.6612 21.3151 29.607 21.333 29.623 21.397C29.6325 21.4367 29.6325 21.4605 29.6417 21.4605C29.6508 21.4605 29.6512 21.4208 29.6584 21.4017C29.6655 21.3827 29.6795 21.3922 29.6866 21.4089C29.6938 21.4256 29.6632 21.4347 29.6679 21.472C29.6727 21.5094 29.6369 21.5403 29.656 21.5514C29.6751 21.5626 29.7077 21.5209 29.7312 21.4927C29.7547 21.4645 29.7432 21.4132 29.7499 21.3684C29.7579 21.3354 29.7603 21.3013 29.7571 21.2675C29.7544 21.2563 29.7558 21.2445 29.761 21.2342C29.7661 21.2239 29.7748 21.2157 29.7853 21.2111C29.7997 21.204 29.8112 21.2135 29.7949 21.2532C29.7786 21.2929 29.7949 21.2838 29.7993 21.3191C29.8036 21.3545 29.7925 21.3986 29.8112 21.3986C29.8299 21.3986 29.851 21.3588 29.861 21.3283C29.8709 21.2977 29.9031 21.2977 29.9147 21.2858C29.9262 21.2738 29.9266 21.246 29.9008 21.2484C29.8749 21.2508 29.8864 21.1964 29.8888 21.1583C29.8912 21.1202 29.849 21.138 29.8538 21.1094C29.8732 21.0648 29.9001 21.0239 29.9338 20.9887ZM29.7997 16.1765C29.8184 16.167 29.7806 16.0824 29.7599 16.0403C29.7392 15.9982 29.6329 15.8711 29.6007 15.81C29.5684 15.7488 29.5469 15.6221 29.4857 15.5614C29.4244 15.5006 29.3838 15.5153 29.3969 15.5614C29.4072 15.5963 29.4104 15.6527 29.4478 15.6881C29.4853 15.7234 29.4952 15.7162 29.5115 15.7726C29.5278 15.829 29.568 15.8898 29.568 15.9347C29.568 15.9796 29.6269 16.0757 29.5991 16.0959C29.5712 16.1162 29.5374 16.0217 29.5422 16.0848C29.5469 16.1479 29.5844 16.1245 29.5867 16.1531C29.5825 16.1957 29.5924 16.2386 29.615 16.275C29.6548 16.341 29.6174 16.3175 29.5991 16.3199C29.5808 16.3223 29.5728 16.3878 29.5493 16.4208C29.5258 16.4537 29.5187 16.4394 29.4996 16.5427C29.4805 16.646 29.5513 16.6789 29.5704 16.6698C29.5895 16.6607 29.5796 16.5947 29.6007 16.5852C29.6218 16.5757 29.6174 16.4958 29.6361 16.4958C29.6548 16.4958 29.6456 16.4394 29.6691 16.4394C29.6926 16.4394 29.6739 16.4792 29.7117 16.5288C29.7495 16.5784 29.7635 16.5383 29.7635 16.4958C29.7591 16.4509 29.741 16.4083 29.7117 16.3739C29.6878 16.3457 29.7304 16.3457 29.7587 16.2893C29.7869 16.2329 29.7443 16.1579 29.7539 16.134C29.7635 16.1102 29.7806 16.1861 29.7997 16.1765ZM29.7173 21.7961C29.7499 21.7623 29.7969 21.719 29.7969 21.6908C29.7969 21.6626 29.7213 21.7306 29.6775 21.7798C29.6337 21.8291 29.5979 21.8509 29.621 21.8521C29.6588 21.8455 29.6927 21.8256 29.7173 21.7961ZM29.7006 16.6233C29.7101 16.6074 29.7217 16.6039 29.7077 16.5947C29.6938 16.5856 29.6795 16.524 29.6651 16.5153C29.6508 16.5066 29.6369 16.555 29.623 16.6047C29.609 16.6543 29.5792 16.717 29.6417 16.7337C29.6771 16.7433 29.6771 16.7433 29.6866 16.7337C29.6962 16.7242 29.6795 16.6988 29.6723 16.661C29.6651 16.6233 29.6906 16.6392 29.7006 16.6233ZM29.7057 19.8354C29.7149 19.7321 29.6632 19.8545 29.6584 19.8966C29.6536 19.9387 29.5641 20.1908 29.5545 20.2433C29.5489 20.277 29.697 19.9383 29.7057 19.8354ZM29.7022 20.9474C29.7241 20.9252 29.6425 20.916 29.6142 20.8942C29.5859 20.8723 29.6082 20.8148 29.5987 20.775C29.5891 20.7353 29.5828 20.7282 29.6019 20.6936C29.621 20.6591 29.6616 20.6559 29.6584 20.6309C29.6547 20.6186 29.6542 20.6055 29.6569 20.5929C29.6596 20.5804 29.6655 20.5687 29.6739 20.559C29.6929 20.5349 29.7029 20.505 29.7022 20.4744C29.7022 20.4526 29.6361 20.5141 29.6082 20.5181C29.5804 20.5221 29.5987 20.4617 29.5641 20.4244C29.5294 20.387 29.4355 20.6186 29.4009 20.7155C29.3662 20.8124 29.3288 20.8032 29.266 20.9033C29.2031 21.0034 29.2504 21.0097 29.1466 21.0975C29.0427 21.1853 29.0558 21.2008 29.0431 21.2731C29.0303 21.3453 29.0276 21.3263 28.9993 21.3283C28.971 21.3302 28.9428 21.3545 28.9197 21.3449C28.8966 21.3354 28.8978 21.2981 28.8504 21.3803C28.8031 21.4625 28.8222 21.4732 28.8504 21.5642C28.8787 21.6551 28.8819 21.636 28.9197 21.6436L28.9416 21.7778C28.9601 21.7777 28.9781 21.772 28.9932 21.7615C29.0084 21.7509 29.02 21.736 29.0264 21.7186C29.0514 21.6686 29.0514 21.7905 29.0765 21.7937C29.1016 21.7969 29.0952 21.7314 29.1235 21.7143C29.1517 21.6972 29.1676 21.7051 29.1768 21.6706C29.186 21.636 29.1768 21.6309 29.1987 21.6642C29.2206 21.6976 29.2429 21.6861 29.2632 21.6611C29.2835 21.636 29.2803 21.6237 29.2835 21.6674C29.2866 21.7111 29.3058 21.6738 29.3368 21.6456C29.3714 21.6185 29.3968 21.5813 29.4092 21.5391C29.4184 21.4951 29.4248 21.5789 29.449 21.536C29.4733 21.4931 29.4709 21.4077 29.4709 21.3513C29.4709 21.2949 29.4992 21.2949 29.5274 21.2635C29.5557 21.2321 29.5151 21.2198 29.5465 21.1976C29.578 21.1754 29.5716 21.1321 29.5808 21.0757C29.5899 21.0193 29.5716 21.0161 29.6062 21.0129C29.6409 21.0097 29.6803 20.9708 29.7022 20.9474ZM29.6675 21.9005C29.6723 21.868 29.6134 21.8819 29.576 21.9125C29.5386 21.943 29.5227 21.9839 29.5454 21.9919C29.5581 21.9955 29.5557 21.9871 29.5676 21.9732C29.5796 21.9593 29.5736 21.9637 29.6027 21.9661C29.6317 21.9684 29.6636 21.9351 29.6679 21.9021L29.6675 21.9005ZM29.576 21.8608C29.576 21.8418 29.543 21.8465 29.4888 21.8962C29.4347 21.9458 29.3515 21.9875 29.383 22.0348C29.3969 22.0558 29.4299 22.0252 29.4534 21.9899C29.4769 21.9545 29.5764 21.8811 29.5764 21.8624L29.576 21.8608ZM29.3627 15.4843C29.3627 15.4375 29.305 15.4327 29.3093 15.4093C29.3137 15.3858 29.2767 15.3481 29.3002 15.339C29.3237 15.3298 29.3519 15.3763 29.3615 15.339C29.371 15.3016 29.3284 15.2595 29.3376 15.2119C29.3441 15.1896 29.3424 15.1657 29.3329 15.1445C29.3235 15.1233 29.3068 15.1061 29.2859 15.0959C29.2389 15.0737 29.2389 15.0991 29.2011 15.1229C29.1633 15.1467 29.0817 15.0185 29.0741 15.0832C29.0693 15.1253 29.0976 15.1348 29.145 15.1726C29.1923 15.2103 29.2059 15.229 29.2186 15.3556C29.2313 15.4823 29.2811 15.4541 29.3093 15.4823C29.3376 15.5105 29.3623 15.5332 29.3635 15.4859L29.3627 15.4843ZM28.8154 19.416C28.8437 19.3926 28.8389 19.2969 28.8154 19.2655C28.7919 19.2341 28.696 19.308 28.6857 19.3596C28.6753 19.4113 28.6355 19.4287 28.6411 19.5054C28.6435 19.5375 28.6411 19.5379 28.6857 19.524C28.7302 19.5101 28.8011 19.5475 28.7872 19.5054C28.7808 19.4898 28.7802 19.4724 28.7853 19.4564C28.7905 19.4403 28.8011 19.4266 28.8154 19.4176V19.416ZM28.7657 21.891C28.7776 21.8644 28.7517 21.8561 28.7259 21.8632C28.7137 21.8662 28.7031 21.8734 28.6958 21.8835C28.6885 21.8936 28.685 21.906 28.6861 21.9184C28.6861 21.9383 28.6956 21.9641 28.7095 21.9641C28.7235 21.9641 28.7549 21.9188 28.7665 21.8926L28.7657 21.891ZM28.6152 21.9172C28.6176 21.8819 28.5965 21.9593 28.5798 21.9029C28.5631 21.8465 28.5515 21.8374 28.5304 21.8445C28.5094 21.8517 28.495 21.9077 28.4739 21.9125C28.4528 21.9172 28.4763 21.9279 28.4974 21.9319C28.5185 21.9359 28.5328 21.9454 28.5209 21.9545C28.509 21.9637 28.4811 21.9478 28.4624 21.9569C28.4437 21.9661 28.4198 22.0042 28.4126 21.9569C28.4103 21.9237 28.3952 21.8927 28.3705 21.8704C28.3517 21.8537 28.347 21.889 28.3187 21.8843C28.2905 21.8795 28.2789 21.8866 28.3116 21.8561C28.3442 21.8255 28.347 21.802 28.3235 21.7738C28.3 21.7457 28.2881 21.7834 28.2694 21.7905C28.2507 21.7977 28.2833 21.7786 28.267 21.748C28.2507 21.7175 28.2244 21.7341 28.2176 21.7127C28.2109 21.6912 28.2176 21.6563 28.1822 21.6706C28.1468 21.6849 28.1424 21.7151 28.1352 21.6988C28.1281 21.6825 28.1233 21.6495 28.1046 21.6682C28.0859 21.6869 28.0879 21.6964 28.0596 21.6869C28.0314 21.6773 28.0174 21.7151 28.0007 21.6869C27.984 21.6587 27.9916 21.6587 27.9585 21.6472C27.9255 21.6356 27.8857 21.64 27.8666 21.6074C27.8475 21.5749 27.8101 21.6003 27.7774 21.5721C27.7448 21.5439 27.7631 21.5487 27.7209 21.5137C27.6787 21.4788 27.6879 21.4831 27.6413 21.497C27.5948 21.5109 27.5824 21.5324 27.5307 21.5205C27.4789 21.5086 27.4451 21.497 27.4363 21.5137C27.4176 21.5495 27.4316 21.5606 27.4929 21.6122C27.5542 21.6638 27.5824 21.6519 27.6389 21.6968C27.6954 21.7417 27.7094 21.7953 27.7611 21.8001C27.8129 21.8048 27.8363 21.8517 27.8407 21.9033C27.8451 21.9549 27.9116 21.9549 27.949 22.0066C27.9864 22.0582 27.982 22.1289 28.0684 22.1948C28.1547 22.2607 28.1297 22.1758 28.1579 22.1948C28.1862 22.2139 28.1814 22.2742 28.2566 22.2885C28.3318 22.3028 28.3557 22.3731 28.4027 22.3354C28.4497 22.2977 28.5014 22.2885 28.5157 22.204C28.5301 22.1194 28.5201 22.0022 28.5627 21.9927C28.6053 21.9831 28.6136 21.9542 28.6164 21.9188L28.6152 21.9172ZM25.8177 21.6857C25.8186 21.6678 25.8156 21.6499 25.8091 21.6332C25.8026 21.6165 25.7926 21.6014 25.7799 21.5888C25.7612 21.5638 25.7671 21.5197 25.7361 21.5137C25.705 21.5078 25.7015 21.4541 25.67 21.4073C25.6386 21.3604 25.604 21.3759 25.5701 21.426C25.5363 21.476 25.5602 21.5324 25.555 21.5701C25.5498 21.6078 25.5383 21.6098 25.5634 21.6575C25.5884 21.7051 25.5351 21.6972 25.5634 21.7611L25.5697 21.7766C25.6199 21.8457 25.6637 21.8203 25.6828 21.8112C25.7019 21.802 25.758 21.8298 25.7831 21.7985C25.796 21.7829 25.8058 21.7649 25.8117 21.7455C25.8177 21.7262 25.8197 21.7058 25.8177 21.6857ZM21.9762 23.6873C22.0001 23.673 21.9905 23.6873 21.9527 23.6078C21.9149 23.5284 21.9479 23.5284 21.8823 23.4387C21.8166 23.3489 21.8114 23.3823 21.7788 23.3918C21.7461 23.4013 21.7879 23.4855 21.7597 23.4855C21.7314 23.4855 21.7032 23.4105 21.6845 23.4387C21.6657 23.4669 21.7223 23.5233 21.6845 23.5372C21.6466 23.5511 21.6092 23.5419 21.5997 23.5654C21.5901 23.5888 21.3832 23.5701 21.341 23.5467C21.2988 23.5233 21.3501 23.6031 21.341 23.6126C21.3332 23.6285 21.3304 23.6464 21.3329 23.664C21.3353 23.6815 21.343 23.6979 21.3549 23.7111C21.3879 23.7441 21.4301 23.7532 21.421 23.7957C21.4118 23.8382 21.4114 23.8708 21.3927 23.8751C21.374 23.8795 21.3207 23.8418 21.341 23.8847C21.3715 23.9464 21.4111 24.0033 21.4584 24.0534C21.5105 24.1051 21.5858 24.1853 21.6514 24.1897C21.7171 24.194 21.7505 24.2135 21.7708 24.2087C21.7911 24.204 21.7991 24.2194 21.8273 24.2087C21.8556 24.198 21.8321 24.1607 21.8508 24.1325C21.8695 24.1043 21.8413 24.0928 21.8508 24.0479C21.8604 24.003 21.8604 23.9589 21.8934 23.9355C21.9264 23.9121 21.8839 23.8509 21.8934 23.8227C21.903 23.7945 21.8536 23.7711 21.9061 23.7663C21.9587 23.7615 21.9495 23.7051 21.926 23.6869C21.9026 23.6686 21.9527 23.7012 21.9762 23.6873ZM26.5071 12.5332C26.5199 12.5145 26.504 12.505 26.4697 12.4863C26.4355 12.4676 26.3659 12.4069 26.3659 12.4486C26.3659 12.4903 26.3786 12.4954 26.41 12.505C26.4415 12.5145 26.4956 12.5514 26.5071 12.5332ZM26.2906 13.0737C26.3034 13.0562 26.211 13.0312 26.1808 13.0498C26.1593 13.0626 26.2154 13.1062 26.2373 13.1126C26.2592 13.1189 26.2783 13.0911 26.2906 13.0737ZM26.1211 12.9287C26.1609 12.9152 26.1557 12.8652 26.1493 12.8493C26.143 12.8334 26.1072 12.837 26.1048 12.8493C26.1024 12.8616 26.0741 12.8525 26.0554 12.8934C26.0451 12.9176 26.0805 12.9426 26.1211 12.9287ZM26.09 12.9903C26.1183 12.9684 26.0869 12.9525 26.0367 12.9339C25.9866 12.9152 26.0033 12.9525 26.0073 12.9684C26.0112 12.9843 25.977 12.9371 25.9551 12.9589C25.9332 12.9807 25.9014 12.9776 25.9153 13.0153C25.9428 13.0975 26.0188 13.0717 26.069 13.0622C26.1191 13.0526 26.0618 13.0121 26.09 12.9903ZM24.2354 13.5181C24.315 13.4851 24.2963 13.4569 24.2354 13.4664C24.1745 13.476 24.1128 13.5272 24.0797 13.5085C24.0467 13.4899 23.9763 13.5367 23.8867 13.5602C23.7972 13.5836 23.8493 13.6166 23.7737 13.6543C23.6981 13.692 23.7693 13.6916 23.6941 13.7433C23.6189 13.7949 23.6658 13.7905 23.6284 13.8139C23.591 13.8374 23.5683 13.7945 23.5436 13.856C23.5309 13.8878 23.5484 13.8938 23.6002 13.9029C23.6519 13.912 23.6423 13.9077 23.6284 13.9502C23.6145 13.9927 23.7319 13.9923 23.7554 13.9923C23.7789 13.9923 23.7462 13.9641 23.7319 13.9172C23.7176 13.8703 23.7602 13.8326 23.7884 13.7905C23.8167 13.7484 23.8119 13.7623 23.8306 13.7575C23.8493 13.7528 23.9014 13.6682 23.958 13.6324C24.0145 13.5967 24.0471 13.5649 24.0801 13.5745C24.1132 13.584 24.1554 13.5506 24.2354 13.5181ZM23.515 12.3155C23.5341 12.2969 23.5102 12.2496 23.515 12.2166C23.5198 12.1837 23.4067 12.2075 23.402 12.198C23.3972 12.1884 23.4418 12.1042 23.402 12.09C23.3622 12.0757 23.2889 12.1559 23.2607 12.1606C23.2324 12.1654 23.3363 12.09 23.3363 12.09C23.2573 12.0892 23.1795 12.1086 23.1102 12.1463C23.0067 12.2075 22.9876 12.1932 22.8746 12.2123C22.7616 12.2313 22.5594 12.2357 22.4933 12.2405C22.4273 12.2452 22.4089 12.2826 22.3898 12.2822C22.3425 12.2665 22.2915 12.2665 22.2442 12.2822C22.1646 12.31 22.2911 12.2873 22.3007 12.306C22.3102 12.3247 22.1594 12.339 22.112 12.3342C22.0647 12.3294 22.1877 12.2873 22.112 12.2826C22.0364 12.2778 22.0229 12.3155 21.9616 12.3195C21.9003 12.3235 21.9146 12.3294 21.9003 12.3195C21.886 12.3096 21.7451 12.3946 21.712 12.418C21.679 12.4414 21.7025 12.3711 21.6746 12.3834C21.5712 12.4424 21.4642 12.4948 21.3542 12.5403C21.2225 12.5872 21.3025 12.559 21.2555 12.6011C21.2086 12.6432 21.0836 12.6694 21.1047 12.7C21.1131 12.7123 21.2532 12.6718 21.3037 12.6527C21.3542 12.6336 21.3909 12.646 21.4402 12.6483C21.4896 12.6507 21.48 12.613 21.5111 12.6245C21.5421 12.636 21.6193 12.634 21.6193 12.646C21.6193 12.6579 21.5696 12.6483 21.5437 12.6599C21.5178 12.6714 21.5696 12.7162 21.6098 12.7305C21.65 12.7448 21.6237 12.7 21.6734 12.7047C21.7232 12.7095 21.7228 12.7047 21.7132 12.7444C21.7037 12.7842 21.7319 12.8104 21.8215 12.8425C21.911 12.8747 21.9063 12.808 21.9226 12.7937C21.9389 12.7794 21.8804 12.7162 21.9226 12.7397C21.9648 12.7631 21.9839 12.7655 22.0022 12.7468C22.0145 12.7345 21.9914 12.7206 21.9803 12.7151C22.0062 12.7206 22.087 12.7027 22.0563 12.7421C22.0257 12.7814 21.9007 12.8266 21.9242 12.8405C21.9477 12.8544 22.1268 12.7738 22.1268 12.7738C22.1268 12.7738 22.1928 12.7607 22.235 12.7468C22.2772 12.7329 22.2633 12.6674 22.2633 12.6674L22.3138 12.7095C22.3138 12.7095 22.2537 12.7377 22.2868 12.7675C22.3198 12.7973 22.3664 12.7238 22.3664 12.7238C22.3664 12.7238 22.3946 12.7754 22.4133 12.7663C22.432 12.7572 22.4559 12.7143 22.4559 12.7143C22.4559 12.7143 22.4559 12.7707 22.4842 12.7659C22.5124 12.7611 22.5359 12.6865 22.5829 12.7004C22.6298 12.7143 22.6255 12.7051 22.7381 12.6769C22.8507 12.6487 22.7946 12.6674 22.8229 12.6392C22.8511 12.611 22.9025 12.6344 23.0585 12.644C23.1858 12.6515 23.1325 12.6309 23.1281 12.6285H23.1337C23.171 12.6496 23.213 12.6609 23.2559 12.6614C23.3454 12.6662 23.2889 12.6146 23.2233 12.5955C23.1576 12.5765 23.1835 12.5439 23.2324 12.5677C23.2814 12.5915 23.2937 12.5864 23.2985 12.5534C23.3033 12.5205 23.3315 12.4593 23.3315 12.5157C23.3315 12.5721 23.4111 12.5348 23.4632 12.5157C23.5154 12.4966 23.4772 12.4502 23.468 12.422C23.4589 12.3938 23.5054 12.3938 23.4887 12.3656C23.472 12.3374 23.4067 12.389 23.3972 12.3826C23.3876 12.3763 23.4489 12.3429 23.4537 12.3139C23.4585 12.2849 23.4963 12.3342 23.515 12.3155ZM21.4494 13.1185C21.4689 13.086 21.4251 13.0717 21.4016 13.053C21.3781 13.0344 21.406 13.0296 21.4342 13.0201C21.4625 13.0105 21.4533 12.9732 21.3825 12.9732C21.3117 12.9732 21.359 13.0387 21.3355 13.0526C21.3121 13.0665 21.3025 13.0244 21.246 13.0526C21.1895 13.0808 21.1895 13.0665 21.1755 13.109C21.1616 13.1515 21.1003 13.1511 21.1047 13.198C21.1299 13.2256 21.1603 13.248 21.1943 13.2639C21.2358 13.2756 21.2797 13.2756 21.3212 13.2639C21.3694 13.2548 21.4295 13.1515 21.4494 13.1185ZM20.7362 13.9736C20.7525 13.9617 20.7385 13.9502 20.7127 13.9251C20.6868 13.9001 20.6772 13.9053 20.6279 13.9251C20.5785 13.945 20.5853 13.943 20.5714 13.9291C20.5575 13.9152 20.5503 13.9454 20.5316 13.9641C20.5001 13.9888 20.4744 14.0201 20.4564 14.0558C20.4305 14.1098 20.4305 14.0415 20.4094 14.0391C20.3883 14.0367 20.3764 14.1003 20.3409 14.1495C20.3055 14.1988 20.3059 14.1892 20.3151 14.2083C20.3242 14.2274 20.3198 14.2341 20.2892 14.2647C20.2586 14.2953 20.2494 14.3259 20.2184 14.3421C20.1873 14.3584 20.1953 14.3116 20.1833 14.3C20.1714 14.2885 20.1598 14.3163 20.1268 14.3751C20.0938 14.4339 20.0894 14.3823 20.0397 14.4009C19.9899 14.4196 20.0233 14.4478 20.0257 14.497C20.0281 14.5463 20.007 14.5232 20.0022 14.5042C19.9975 14.4851 19.9433 14.5066 19.9103 14.5209C19.8773 14.5352 19.8212 14.5153 19.8562 14.5538C19.882 14.582 19.9079 14.6054 19.9199 14.5911C19.9318 14.5769 19.9409 14.5888 19.9788 14.6217C20.0166 14.6547 20.0046 14.6877 20.0679 14.6992C20.1312 14.7107 20.12 14.69 20.1129 14.6595C20.1057 14.6289 20.134 14.6404 20.1742 14.636C20.1918 14.6317 20.2084 14.6239 20.2229 14.613C20.2375 14.602 20.2496 14.5883 20.2586 14.5725C20.2753 14.5491 20.2586 14.5256 20.2351 14.5348C20.2116 14.5439 20.2092 14.5256 20.2351 14.5042C20.2609 14.4827 20.3175 14.422 20.3409 14.4033C20.3635 14.3799 20.3762 14.3488 20.3764 14.3163C20.3811 14.2814 20.5013 14.1753 20.5129 14.1614C20.5244 14.1475 20.4989 14.117 20.5177 14.1122C20.5364 14.1074 20.6072 14.0931 20.6259 14.0911C20.6446 14.0892 20.6566 14.0653 20.6378 14.0371C20.6191 14.0089 20.612 13.9974 20.6307 13.9784C20.6494 13.9593 20.7198 13.9851 20.7362 13.9736ZM20.3314 14.1098C20.3549 14.0816 20.3362 14.0792 20.3194 14.0558C20.3027 14.0324 20.2347 14.0558 20.1829 14.0769C20.1312 14.0979 20.136 14.1027 20.1264 14.14C20.1169 14.1773 20.1005 14.1591 20.0795 14.1428C20.0584 14.1265 20.0253 14.1896 19.9784 14.2155C19.9314 14.2413 19.929 14.2155 19.9386 14.2742C19.936 14.2797 19.9356 14.2859 19.9373 14.2917C19.9391 14.2975 19.9429 14.3025 19.9481 14.3056C19.9668 14.3159 20.0118 14.2881 20.0186 14.3187C20.0253 14.3493 20.0444 14.333 20.0799 14.3187C20.1208 14.2955 20.1568 14.2645 20.1857 14.2274C20.1934 14.2161 20.2041 14.2072 20.2167 14.2017C20.2292 14.1963 20.2431 14.1946 20.2566 14.1968C20.2749 14.1944 20.3079 14.14 20.3314 14.1098ZM22.8854 16.7611C22.8997 16.7985 22.9514 16.8362 22.9041 16.8501C22.8582 16.8699 22.8141 16.8935 22.7723 16.9208C22.7678 16.923 22.7634 16.9255 22.7592 16.9283C22.7718 16.9151 22.7812 16.8992 22.7867 16.8819C22.8054 16.8267 22.7632 16.8128 22.7302 16.8024C22.6971 16.7921 22.6876 16.7365 22.6406 16.7603C22.5936 16.7842 22.6076 16.8354 22.5889 16.8493C22.5702 16.8632 22.5606 16.7929 22.5276 16.8354C22.4945 16.8779 22.5817 16.9148 22.5618 16.9387C22.5419 16.9625 22.5156 17.0514 22.5618 17.0701C22.608 17.0888 22.6414 17.1495 22.6689 17.1265L22.6728 17.1237C22.6665 17.1313 22.5905 17.2095 22.6267 17.2826C22.6689 17.3672 22.6358 17.1634 22.7158 17.2075C22.7958 17.2516 22.7489 17.3267 22.7723 17.3533C22.7958 17.3799 22.8054 17.3954 22.7393 17.3815C22.6732 17.3676 22.6502 17.3815 22.6199 17.4283C22.5897 17.4752 22.6008 17.4847 22.6338 17.4895C22.6669 17.4943 22.6104 17.5502 22.6529 17.588C22.6955 17.6257 22.6764 17.6162 22.6573 17.6726C22.6382 17.729 22.6199 17.8183 22.6434 17.8465C22.6669 17.8747 22.6482 17.9216 22.6199 17.8981C22.5916 17.8747 22.5964 17.8584 22.5403 17.8747C22.4842 17.891 22.4508 17.9343 22.4177 17.9045C22.3847 17.8747 22.3803 17.9045 22.319 17.837C22.2577 17.7695 22.2092 17.7619 22.1996 17.6781C22.1901 17.5943 22.1654 17.6031 22.2263 17.5193C22.2872 17.4355 22.2498 17.4065 22.3019 17.3922C22.354 17.3779 22.3958 17.3596 22.3536 17.3453C22.3115 17.331 22.3138 17.2532 22.278 17.1996C22.2064 17.0896 22.1841 17.0308 22.2124 16.9835C22.226 16.9667 22.2354 16.9469 22.2401 16.9257C22.2447 16.9045 22.2443 16.8826 22.239 16.8616C22.2263 16.8191 22.1809 16.8286 22.239 16.7723C22.2971 16.7159 22.3019 16.6531 22.3441 16.6785C22.3863 16.7039 22.4384 16.7182 22.4663 16.6734C22.4941 16.6285 22.5089 16.6503 22.5371 16.6269C22.5654 16.6035 22.5511 16.5987 22.5984 16.5844C22.6458 16.5701 22.6076 16.5562 22.6736 16.5844C22.7397 16.6126 22.7393 16.6174 22.7771 16.5939C22.8149 16.5705 22.8101 16.6313 22.8054 16.669C22.8006 16.7067 22.7656 16.7583 22.8086 16.7675C22.8515 16.7766 22.871 16.7214 22.8854 16.7611ZM22.6737 19.2421L22.6872 19.3001C22.6589 19.3024 22.5861 19.4105 22.4707 19.4764C22.4199 19.5024 22.3638 19.5165 22.3067 19.5177C22.2496 19.5189 22.193 19.5071 22.1411 19.4831C22.0779 19.4482 22.1718 19.3541 22.1766 19.2953C22.1813 19.2365 22.1368 19.2178 22.1037 19.2321C22.0707 19.2464 22.0424 19.3283 22.0305 19.333C22.0185 19.3378 22.0142 19.2977 22.0046 19.1638C21.9951 19.03 21.9481 18.9712 21.9131 18.9653C21.8781 18.9593 21.8896 18.9561 21.8848 18.8644C21.88 18.7727 21.8355 18.7234 21.859 18.7167C21.8824 18.7099 21.894 18.7071 21.8964 18.6861C21.8988 18.665 21.9202 18.6579 21.9907 18.6603C22.0194 18.6606 22.0469 18.6716 22.0678 18.6912C22.0887 18.7107 22.1015 18.7374 22.1037 18.7659C22.1018 18.7814 22.1036 18.7971 22.1089 18.8118C22.1143 18.8265 22.123 18.8398 22.1344 18.8505C22.1602 18.8787 22.1694 18.895 22.1626 18.9299C22.1559 18.9649 22.1435 18.972 22.1626 18.9744C22.1817 18.9768 22.1909 18.9629 22.1953 18.9978C22.1996 19.0328 22.2072 19.0471 22.2589 19.0451C22.3107 19.0431 22.3155 19.059 22.3202 19.1011C22.325 19.1432 22.4165 19.2373 22.4333 19.2373C22.4763 19.2415 22.5196 19.2415 22.5626 19.2373C22.6474 19.2306 22.6263 19.1789 22.6378 19.2139C22.6398 19.2219 22.6444 19.229 22.6509 19.2341C22.6574 19.2392 22.6654 19.242 22.6737 19.2421ZM21.7104 16.3243C21.7128 16.3429 21.6683 16.3334 21.6209 16.3358C21.5735 16.3382 21.5787 16.3453 21.5859 16.3803C21.593 16.4152 21.5648 16.4347 21.5126 16.4597C21.4605 16.4847 21.4633 16.443 21.4585 16.5018C21.4537 16.5606 21.4541 16.5653 21.4983 16.6146C21.541 16.6543 21.569 16.7072 21.5779 16.7647C21.5942 16.8441 21.6201 16.8402 21.6603 16.8838C21.7005 16.9275 21.7001 16.9518 21.6368 17.0272C21.619 17.0522 21.5936 17.0709 21.5644 17.0806C21.5353 17.0903 21.5037 17.0905 21.4744 17.0812C21.4438 17.0717 21.4084 17.0363 21.3495 17.0224C21.3267 17.0179 21.3052 17.0084 21.2865 16.9947C21.2678 16.981 21.2524 16.9633 21.2412 16.943C21.2086 16.8981 21.1755 16.8795 21.1544 16.8465C21.1333 16.8136 21.1636 16.7901 21.1095 16.7973C21.0553 16.8044 21.0836 16.7854 21.0084 16.7643C20.9331 16.7433 20.914 16.7667 20.8273 16.7834C20.7405 16.8 20.719 16.7361 20.6836 16.7246C20.6778 16.722 20.6712 16.7217 20.6651 16.7236C20.6591 16.7255 20.6539 16.7295 20.6506 16.7349C20.6609 16.7258 20.6243 16.6825 20.6227 16.6495C20.6162 16.61 20.6236 16.5694 20.6438 16.5348C20.6612 16.5106 20.6747 16.4838 20.6836 16.4553C20.6975 16.4247 20.754 16.4458 20.7708 16.4339C20.7875 16.422 20.7612 16.3966 20.7919 16.3684C20.8225 16.3402 20.8082 16.3286 20.846 16.3215C20.8838 16.3143 20.9049 16.3282 20.9379 16.2909C20.971 16.2536 20.9073 16.2178 20.959 16.2178C20.9864 16.2184 21.0136 16.2128 21.0386 16.2016C21.0573 16.1968 21.0434 16.1404 21.088 16.1571C21.1325 16.1738 21.1823 16.1873 21.1799 16.2016C21.1775 16.2159 21.1349 16.2087 21.1469 16.2369C21.1588 16.2651 21.2551 16.2861 21.2265 16.3143C21.1978 16.3425 21.158 16.3 21.1469 16.3402C21.1357 16.3803 21.1751 16.3823 21.1799 16.4248C21.1847 16.4672 21.1516 16.4553 21.168 16.495C21.1843 16.5348 21.2102 16.4811 21.2456 16.4859C21.281 16.4907 21.2882 16.4716 21.3116 16.4668C21.3351 16.4621 21.3773 16.4859 21.4008 16.4835C21.4243 16.4811 21.4127 16.4339 21.3845 16.4319C21.3562 16.4299 21.3351 16.4319 21.3327 16.4152C21.3304 16.3985 21.3045 16.3449 21.3093 16.3259C21.314 16.3068 21.3304 16.3259 21.3964 16.3024C21.4625 16.279 21.441 16.2909 21.4999 16.2933C21.5588 16.2957 21.5727 16.2885 21.5986 16.3024C21.6245 16.3163 21.7081 16.3032 21.7104 16.3243ZM21.0797 20.6591H21.0439C21.0395 20.6499 21.0347 20.6408 21.0303 20.6325C21.0116 20.5971 20.934 20.5197 20.9081 20.447C20.873 20.3694 20.8146 20.3046 20.741 20.2615C20.6749 20.2218 20.6562 20.1424 20.6614 20.0594C20.6686 19.9828 20.6549 19.9056 20.6216 19.8362C20.6143 19.8161 20.6031 19.7976 20.5885 19.7819C20.574 19.7662 20.5564 19.7536 20.5368 19.7449C20.5133 19.7306 20.5416 19.5332 20.544 19.4958C20.5449 19.4427 20.5417 19.3896 20.5344 19.337C20.5277 19.2862 20.5056 19.2387 20.4711 19.2008C20.4381 19.1559 20.4544 19.0927 20.4688 19.0503C20.4831 19.0078 20.4803 18.9871 20.4544 18.9708C20.4286 18.9545 20.4309 18.9144 20.4333 18.8517C20.4308 18.7975 20.4205 18.744 20.4027 18.6928C20.3931 18.6483 20.4098 18.5661 20.4003 18.4911C20.3882 18.4354 20.3803 18.3788 20.3768 18.3219C20.3744 18.2325 20.3816 18.1857 20.3979 18.1857C20.4142 18.1857 20.4098 18.308 20.4146 18.3878C20.4194 18.4676 20.4453 18.5026 20.4688 18.5026C20.4922 18.5026 20.4946 18.4557 20.5062 18.4323C20.5177 18.4089 20.5651 18.3219 20.5794 18.3314C20.5937 18.341 20.5698 18.3902 20.544 18.4533C20.5181 18.5165 20.5392 18.5522 20.5818 18.6595C20.6241 18.77 20.6524 18.8854 20.6662 19.003C20.6757 19.0991 20.6944 19.0733 20.7322 19.1674C20.77 19.2615 20.7653 19.3342 20.7557 19.4454C20.7462 19.5566 20.7485 19.5931 20.784 19.6237C20.832 19.6596 20.8674 19.7098 20.8851 19.7671C20.9108 19.8543 20.9439 19.9392 20.9842 20.0209C21.0407 20.1452 21.057 20.1992 21.0383 20.2719C21.0182 20.3281 21.0182 20.3896 21.0383 20.4458C21.0594 20.5252 21.0642 20.4927 21.0689 20.6126C21.0695 20.6286 21.0731 20.6444 21.0797 20.6591ZM20.9549 17.4661C20.9736 17.4613 20.9947 17.4847 20.9549 17.5221C20.9151 17.5594 20.908 17.5717 20.8936 17.6491C20.8793 17.7266 20.8889 17.717 20.8491 17.7663C20.7963 17.8231 20.7497 17.8854 20.7102 17.9522C20.6349 18.0741 20.6019 18.0669 20.5665 18.0788C20.5311 18.0908 20.5267 18.0554 20.4841 18.053C20.4415 18.0506 20.4419 18.0387 20.4228 18.0038C20.4137 17.9847 20.4002 17.9679 20.3835 17.9549C20.3668 17.9419 20.3473 17.9329 20.3265 17.9287C20.2819 17.9216 20.2604 17.9192 20.2369 17.9474C20.2134 17.9756 20.1828 17.9589 20.1478 17.9589C20.1128 17.9589 20.1263 17.9287 20.1215 17.9073C20.1167 17.8858 20.0674 17.8699 20.0419 17.858C20.0164 17.8461 20.0515 17.8136 20.0419 17.8064C20.0324 17.7993 20.0208 17.7945 19.9854 17.7667C19.96 17.7466 19.9325 17.7293 19.9034 17.7151C19.8771 17.7035 19.9102 17.6611 19.9034 17.6424C19.8966 17.6237 19.8704 17.6237 19.8445 17.6142C19.829 17.6054 19.8156 17.5932 19.8054 17.5786C19.7952 17.5639 19.7885 17.5472 19.7856 17.5296C19.776 17.4899 19.7904 17.4684 19.7458 17.4426C19.7012 17.4168 19.7108 17.3934 19.661 17.3981C19.6113 17.4029 19.6141 17.3795 19.5814 17.4101C19.5439 17.4415 19.5196 17.4859 19.5134 17.5344C19.4967 17.607 19.4262 17.5836 19.4075 17.5836C19.3888 17.5836 19.3979 17.5181 19.3677 17.4804C19.3375 17.4426 19.3466 17.4263 19.3207 17.3771C19.2949 17.3278 19.2809 17.3441 19.2666 17.2854C19.2523 17.2266 19.3088 17.175 19.2853 17.1539C19.2618 17.1329 19.2642 17.1186 19.2407 17.0745C19.2173 17.0304 19.2125 17.0085 19.1794 16.9994C19.1464 16.9903 19.1679 16.9597 19.1396 16.92C19.1114 16.8803 19.1679 16.8731 19.1349 16.831C19.1018 16.7889 19.1349 16.7464 19.1914 16.7321C19.2479 16.7178 19.2666 16.6714 19.2618 16.6102C19.2571 16.5491 19.2996 16.5022 19.2996 16.4835C19.2996 16.4649 19.3231 16.4128 19.2996 16.3846C19.2762 16.3564 19.2149 16.3846 19.1958 16.3517C19.1767 16.3187 19.1723 16.2671 19.1162 16.2532C19.06 16.2393 19.1022 16.1873 19.0409 16.1309C18.9796 16.0745 18.8575 16.0558 18.7962 16.0514C18.7349 16.0471 18.787 15.9811 18.7492 15.9323C18.7356 15.9176 18.728 15.8983 18.728 15.8783C18.728 15.8583 18.7356 15.839 18.7492 15.8243L18.7444 15.8008C18.7397 15.777 18.7842 15.7679 18.8129 15.7655C18.8415 15.7631 18.822 15.8171 18.8455 15.8568C18.869 15.8966 18.8762 15.8874 18.902 15.8616C18.9279 15.8358 18.9279 15.8688 18.9586 15.8664C18.9892 15.864 19.0127 15.8028 19.0409 15.8052C19.0692 15.8076 19.0764 15.7842 19.0807 15.7468C19.0851 15.7095 19.1205 15.6928 19.1723 15.6575C19.224 15.6221 19.2173 15.6126 19.269 15.6245C19.3207 15.6364 19.3562 15.6551 19.3983 15.615C19.4405 15.5749 19.4147 15.5141 19.4688 15.5117C19.5229 15.5093 19.5253 15.5141 19.5349 15.5657C19.5444 15.6174 19.5607 15.6452 19.6033 15.6408C19.6459 15.6364 19.6336 15.6106 19.6574 15.6269C19.6813 15.6432 19.7159 15.6221 19.7442 15.5987C19.7725 15.5753 19.7701 15.5963 19.7657 15.669C19.7613 15.7417 19.7609 15.7373 19.7279 15.7703C19.6949 15.8032 19.6881 15.8171 19.6972 15.8549C19.7098 15.8975 19.7139 15.9421 19.7092 15.9863C19.702 16.0356 19.6833 16.0356 19.7183 16.1015C19.7534 16.1674 19.7303 16.1225 19.7136 16.1904C19.6968 16.2583 19.7561 16.1813 19.7418 16.2655C19.7275 16.3497 19.7701 16.3878 19.7279 16.4581C19.6857 16.5284 19.6666 16.5685 19.6244 16.5403C19.5822 16.5121 19.5492 16.5264 19.542 16.4887C19.5349 16.451 19.5209 16.4279 19.476 16.4279C19.431 16.4279 19.4712 16.5054 19.4736 16.5757C19.476 16.646 19.4831 16.6344 19.5114 16.6789C19.5396 16.7234 19.5325 16.7186 19.5751 16.646C19.6176 16.5733 19.622 16.5852 19.6336 16.5852C19.6548 16.5902 19.677 16.5885 19.6972 16.5804C19.74 16.5584 19.7752 16.5241 19.7983 16.4819C19.8127 16.4466 19.7959 16.4208 19.8222 16.3926C19.8485 16.3644 19.8385 16.3433 19.8644 16.3783C19.8903 16.4132 19.8879 16.4911 19.909 16.4887C19.9301 16.4863 19.9257 16.3243 19.9185 16.2869C19.9114 16.2496 19.8807 16.2516 19.874 16.2282C19.8672 16.2047 19.9022 16.2 19.9114 16.1833C19.9205 16.1666 19.9022 16.1388 19.8783 16.1154C19.8545 16.0919 19.8644 16.0074 19.8692 15.972C19.874 15.9367 19.909 15.9132 19.9185 15.8759C19.9281 15.8386 19.8903 15.8267 19.8974 15.8028C19.9046 15.779 19.9209 15.7583 19.9372 15.7162C19.9421 15.6981 19.9516 15.6816 19.9649 15.6684C19.9782 15.6551 19.9947 15.6456 20.0129 15.6408C20.0503 15.6317 20.0503 15.6575 20.0407 15.6881C20.0312 15.7186 20.0268 15.7675 20.0363 15.7675C20.0459 15.7675 20.0527 15.7278 20.0646 15.725C20.0765 15.7222 20.0857 15.758 20.0761 15.8239C20.0666 15.8898 20.0057 15.866 20.0081 15.9061C20.0105 15.9462 20.034 15.9716 20.0455 16.0705C20.057 16.1694 20.069 16.0514 20.0738 16.1499C20.0739 16.2045 20.0803 16.2589 20.0929 16.312C20.102 16.3517 20.0503 16.3469 20.0196 16.4363C19.989 16.5256 19.9607 16.4879 19.9655 16.5514C19.9703 16.615 19.9348 16.75 19.9607 16.7627C19.9866 16.7754 20.0129 16.7627 19.9938 16.7838C19.9747 16.8048 19.9563 16.7838 19.9468 16.8191C19.9372 16.8545 19.9587 16.8684 19.9468 16.9037C19.9349 16.939 19.9046 16.9625 19.9305 16.9696C19.9563 16.9768 19.954 16.9577 19.9468 16.9811C19.9396 17.0046 19.9727 17.0471 19.989 17.0423C20.0053 17.0375 20.0033 17.0026 20.0196 16.9907C20.0359 16.9788 20.0129 16.9295 20.0172 16.9156C20.0216 16.9017 20.057 16.9625 20.069 16.9494C20.0809 16.9363 20.0622 16.9013 20.0809 16.8874C20.0996 16.8735 20.1068 16.92 20.1255 16.9085C20.1442 16.897 20.135 16.8616 20.1609 16.8592C20.1868 16.8568 20.182 16.831 20.1705 16.8052C20.1589 16.7794 20.1374 16.7838 20.1374 16.8239C20.1374 16.864 20.1187 16.8354 20.1068 16.8004C20.0948 16.7655 20.1044 16.7556 20.1279 16.7488C20.1514 16.7421 20.1657 16.6408 20.182 16.6102C20.1983 16.5796 20.2079 16.6174 20.2529 16.6217C20.2978 16.6261 20.3325 16.5912 20.3611 16.5844C20.3898 16.5776 20.3659 16.6408 20.4292 16.7016C20.4924 16.7623 20.4976 16.6992 20.5283 16.6924C20.5589 16.6857 20.547 16.6972 20.6198 16.7254C20.6389 16.7329 20.6489 16.7337 20.6524 16.7305C20.6407 16.7505 20.6304 16.7714 20.6218 16.7929C20.6007 16.835 20.5701 16.8 20.5135 16.7719C20.457 16.7437 20.4455 16.7131 20.4172 16.7389C20.39 16.7574 20.37 16.7848 20.3607 16.8163C20.3512 16.856 20.3301 16.833 20.3157 16.8445C20.3014 16.856 20.2994 16.8727 20.3325 16.8775C20.3655 16.8823 20.3488 16.8469 20.3675 16.833C20.3862 16.8191 20.3937 16.8374 20.3746 16.8985C20.3555 16.9597 20.3464 16.9383 20.309 16.949C20.2716 16.9597 20.2875 16.9855 20.3205 17.0066C20.3535 17.0276 20.3559 17.0276 20.3396 17.0582C20.3212 17.0928 20.313 17.1319 20.3157 17.171C20.3205 17.2063 20.3607 17.1547 20.3555 17.1686C20.3504 17.1825 20.3531 17.2083 20.3953 17.248C20.4375 17.2877 20.3886 17.2997 20.4144 17.3068C20.4403 17.3139 20.5084 17.368 20.5275 17.356C20.5466 17.3441 20.5179 17.2905 20.5581 17.2905C20.5983 17.2905 20.6333 17.3421 20.6377 17.3985C20.6421 17.4549 20.701 17.4641 20.7671 17.4688C20.8331 17.4736 20.8188 17.4502 20.8566 17.4315C20.8944 17.4128 20.8753 17.4573 20.9036 17.4784C20.9318 17.4994 20.935 17.4704 20.9549 17.4661ZM20.0277 21.6817C20.0372 21.7099 20.0746 21.752 20.0607 21.7897C20.0476 21.8145 20.0301 21.8367 20.009 21.8552C20.0042 21.8647 20.0651 21.8865 20.0416 21.9116C20.0113 21.9445 20.0511 21.8834 20.009 21.902C19.9668 21.9207 19.9389 21.8679 19.9099 21.8552C19.8617 21.8341 19.8629 21.8036 19.8629 21.7424C19.8629 21.6813 19.8534 21.6063 19.8864 21.6063C19.9194 21.6063 20.0197 21.6535 20.0277 21.6817Z" stroke="currentColor" stroke-width="0.5" stroke-miterlimit="10"/>
  <path d="M44.1899 8.1939C46.5584 11.1995 48 14.9675 48 19.0875C48 27.5601 42.0252 34.6403 34.0501 36.3612C39.3662 33.3111 42.9454 27.5875 42.9454 21.0315C42.9454 17.4068 41.8708 14.0196 39.9966 11.2153C39.6254 10.6594 39.4846 9.98152 39.6038 9.32415C39.723 8.66678 40.093 8.08114 40.636 7.69031C41.179 7.29949 41.8526 7.13393 42.5154 7.22844C43.1782 7.32294 43.7784 7.67015 44.1899 8.19707V8.1939Z" fill="currentColor"/>
  <path d="M38.2257 5.39732C39.6544 5.39732 40.8127 4.24158 40.8127 2.8159C40.8127 1.39022 39.6544 0.234482 38.2257 0.234482C36.7969 0.234482 35.6387 1.39022 35.6387 2.8159C35.6387 4.24158 36.7969 5.39732 38.2257 5.39732Z" fill="currentColor"/>
  <path d="M10.3657 5.39732C11.7945 5.39732 12.9527 4.24158 12.9527 2.8159C12.9527 1.39022 11.7945 0.234482 10.3657 0.234482C8.93699 0.234482 7.77875 1.39022 7.77875 2.8159C7.77875 4.24158 8.93699 5.39732 10.3657 5.39732Z" fill="currentColor"/>
  <path d="M8.31148 9.54678C8.31255 10.0592 8.16009 10.5603 7.87368 10.9856C6.00308 13.7879 5.17713 17.1751 5.17713 20.795C5.17713 27.3542 8.75913 33.0786 14.0752 36.1283C10.122 35.2716 6.4642 33.0909 3.925 29.9485C1.3858 26.8061 0.000733753 22.8912 0 18.8546C0 14.7243 1.32738 10.9396 3.70901 7.93002C4.04469 7.51378 4.50153 7.21172 5.01652 7.06551C5.53152 6.9193 6.07929 6.93614 6.58428 7.11371C7.08928 7.29128 7.52662 7.62083 7.83598 8.0569C8.14534 8.49298 8.31148 9.01409 8.31148 9.54837V9.54678Z" fill="currentColor"/>
  <path d="M13.3081 15.9461C12.4637 17.6572 12.0246 19.5389 12.0246 21.4461C12.0246 28.8691 18.6802 35.2319 27.1969 34.887C34.5555 34.887 40.8864 29.9446 41.9646 23.493L42.0072 23.5002C41.3102 27.6196 38.9388 31.3596 35.7414 34.0567C32.544 36.7539 28.4926 38.2338 24.3058 38.2341H24.2955C14.5143 38.2341 6.11507 30.3219 6.11507 20.5613C6.10867 16.1813 7.73873 11.9561 10.6869 8.71101C12.0648 7.19036 14.5937 7.79759 15.1322 9.77575C15.7205 11.936 16.9589 13.8641 18.6802 15.2998C20.4015 16.7355 22.5228 17.6097 24.7578 17.8044C24.9966 17.8254 25.0097 18.1717 24.7713 18.2071C23.1729 18.4414 21.5423 18.3205 19.9961 17.8531C18.4499 17.3856 17.0263 16.5831 15.8271 15.5029C15.0227 14.7781 13.779 15.0458 13.3292 15.9565L13.3081 15.9461Z" fill="currentColor"/>
  <path d="M41.1858 23.0316C40.1076 29.4832 34.2689 33.7014 27.0796 33.9491C18.9604 33.9491 12.9635 28.4002 12.9635 20.9772C12.9635 19.0699 13.4027 17.1882 14.2471 15.4772L14.2682 15.4875C14.2165 15.5933 14.1764 15.7043 14.1488 15.8187C13.9414 16.6663 13.8346 17.5352 13.8304 18.4077C13.7934 24.4391 18.1938 29.3589 24.2383 29.3962H24.3059C30.3508 29.3962 35.2509 24.5066 35.2509 18.4748C35.2509 18.1693 35.2385 17.8669 35.2135 17.5677C35.1037 16.2246 33.4739 15.6094 32.5107 16.5522C31.3094 17.727 29.8534 18.6102 28.2553 19.1336C26.6572 19.657 24.9599 19.8065 23.2946 19.5705C23.0307 19.5332 23.0407 19.1515 23.3062 19.1281C27.7546 18.7345 31.6773 15.6456 32.8912 11.086C32.9969 10.6894 33.0804 10.2873 33.1411 9.88145C33.4719 7.66659 35.7725 6.8453 37.2407 8.5403C38.943 10.5098 40.1895 12.8293 40.8916 15.3339C41.5937 17.8385 41.6169 20.4667 41.1858 23.0316Z" fill="currentColor"/>
  <path d="M31.7428 6.65188C33.1716 6.65188 34.3298 5.49614 34.3298 4.07046C34.3298 2.64479 33.1716 1.48904 31.7428 1.48904C30.3141 1.48904 29.1558 2.64479 29.1558 4.07046C29.1558 5.49614 30.3141 6.65188 31.7428 6.65188Z" fill="currentColor"/>
  <path d="M16.6494 6.77102C18.0782 6.77102 19.2364 5.61528 19.2364 4.1896C19.2364 2.76393 18.0782 1.60818 16.6494 1.60818C15.2206 1.60818 14.0624 2.76393 14.0624 4.1896C14.0624 5.61528 15.2206 6.77102 16.6494 6.77102Z" fill="currentColor"/>
</svg>